# Blender v3.2.0 OBJ File: 'EnvironmentalPieces.blend'
# www.blender.org
mtllib Plank_03.mtl
o Plank.004_Cube.006
v -4.364233 -0.110924 1.000000
v -4.364233 0.110924 1.000000
v -4.364233 -0.110924 -1.000000
v -4.364233 0.110924 -1.000000
v 4.364233 -0.110924 1.000000
v 4.364233 0.110924 1.000000
v 4.364233 -0.110924 -1.000000
v 4.364233 0.110924 -1.000000
v -4.364233 -0.110924 0.000000
v -4.364233 0.110924 0.000000
v 4.364233 -0.110924 0.000000
v 4.364233 0.110924 0.000000
v -4.364233 0.000000 1.000000
v -4.364233 0.000000 -1.000000
v 4.364233 0.000000 -1.000000
v 4.364233 0.000000 1.000000
v 4.364233 0.000000 0.000000
v -4.364233 0.000000 0.000000
vt 0.528327 0.914509
vt 0.532612 0.914509
vt 0.532612 0.918794
vt 0.528327 0.918794
vt 0.532612 0.927365
vt 0.528327 0.927365
vt 0.528327 0.931650
vt 0.532612 0.931650
vt 0.532612 0.935936
vt 0.528327 0.935936
vt 0.532612 0.944506
vt 0.528327 0.944506
vt 0.515471 0.931650
vt 0.524041 0.931650
vt 0.524041 0.935936
vt 0.515471 0.935936
vt 0.541182 0.931650
vt 0.541182 0.935936
vt 0.541182 0.927365
vt 0.515471 0.927365
vt 0.524041 0.927365
vt 0.528327 0.910224
vt 0.532612 0.910224
vt 0.524041 0.910224
vt 0.524041 0.914509
vt 0.524041 0.944506
vt 0.524041 0.918794
vn -1.0000 0.0000 0.0000
vn 0.0000 0.0000 -1.0000
vn 1.0000 0.0000 0.0000
vn 0.0000 0.0000 1.0000
vn 0.0000 -1.0000 0.0000
vn 0.0000 1.0000 0.0000
usemtl None
s off
f 18/1/1 10/2/1 4/3/1 14/4/1
f 14/4/2 4/3/2 8/5/2 15/6/2
f 17/7/3 12/8/3 6/9/3 16/10/3
f 16/10/4 6/9/4 2/11/4 13/12/4
f 9/13/5 11/14/5 5/15/5 1/16/5
f 12/8/6 10/17/6 2/18/6 6/9/6
f 8/5/6 4/19/6 10/17/6 12/8/6
f 3/20/5 7/21/5 11/14/5 9/13/5
f 15/6/3 8/5/3 12/8/3 17/7/3
f 13/22/1 2/23/1 10/2/1 18/1/1
f 1/24/1 13/22/1 18/1/1 9/25/1
f 7/21/3 15/6/3 17/7/3 11/14/3
f 5/15/4 16/10/4 13/12/4 1/26/4
f 11/14/3 17/7/3 16/10/3 5/15/3
f 3/27/2 14/4/2 15/6/2 7/21/2
f 9/25/1 18/1/1 14/4/1 3/27/1
