# Blender v3.2.0 OBJ File: 'EnvironmentalPieces.blend'
# www.blender.org
mtllib Plank_01.mtl
o Plank_Cube.001
v -4.266173 -0.155344 1.033508
v -4.266173 -0.019224 1.033508
v -4.266173 -0.198769 -0.966492
v -4.266173 0.023078 -0.966492
v 4.462292 -0.156635 1.033508
v 4.462292 -0.011813 1.033508
v 4.462292 -0.198769 -0.966492
v 4.462292 0.023078 -0.966492
v -4.266173 -0.135292 0.033508
v -4.266173 0.023078 0.033508
v 4.462292 -0.198769 0.033508
v 4.462292 -0.041710 0.033508
v -4.266173 -0.087846 1.033508
v -4.266173 -0.087846 -0.966492
v 4.462292 -0.087846 -0.966492
v 4.462292 -0.087846 1.033508
v 4.462292 -0.087846 0.033508
v -4.266173 -0.087846 0.033508
v 3.797639 0.023078 1.033508
v 4.462292 0.023078 0.783964
v 4.462292 0.023078 0.247490
v 3.913627 0.023078 0.033508
v 4.462292 0.023078 -0.130825
v -4.266173 -0.070649 -0.555010
v -2.430351 0.023078 0.033508
v -4.266173 0.023078 0.544813
v 3.336953 -0.198769 1.033508
v 4.462292 -0.198769 0.523803
vt 0.534137 0.948220
vt 0.537968 0.948220
vt 0.537968 0.950475
vt 0.537968 0.952051
vt 0.534137 0.952051
vt 0.537968 0.959711
vt 0.534137 0.959711
vt 0.534137 0.963542
vt 0.537968 0.963542
vt 0.537968 0.964361
vt 0.537968 0.966416
vt 0.537968 0.967372
vt 0.534137 0.967372
vt 0.537968 0.967955
vt 0.537968 0.975033
vt 0.534137 0.975033
vt 0.522646 0.963542
vt 0.530307 0.963542
vt 0.530307 0.965420
vt 0.529319 0.967372
vt 0.522646 0.967372
vt 0.538449 0.963542
vt 0.545628 0.959711
vt 0.545628 0.961287
vt 0.544017 0.963542
vt 0.537968 0.962912
vt 0.522646 0.959711
vt 0.530307 0.959711
vt 0.534137 0.944390
vt 0.537968 0.944390
vt 0.537968 0.946262
vt 0.530307 0.944390
vt 0.530307 0.948220
vt 0.530307 0.967372
vt 0.530307 0.975033
vt 0.530307 0.968360
vt 0.530307 0.952051
vt 0.538551 0.967372
vt 0.545628 0.965500
vt 0.545628 0.967372
vt 0.545628 0.963542
vn -1.0000 0.0000 0.0000
vn 0.0000 0.0000 -1.0000
vn 1.0000 -0.0000 0.0000
vn 0.0000 0.0000 1.0000
vn -0.0063 -0.9999 -0.0133
vn 0.1123 0.9510 -0.2879
vn -0.0058 0.9999 0.0106
vn -0.0036 -0.9995 0.0317
vn 0.0519 0.9890 0.1383
vn -0.0013 0.9998 0.0210
vn 0.1092 0.9247 0.3646
vn 0.0000 0.9876 -0.1573
vn 0.0000 1.0000 0.0000
vn 0.0373 -0.9959 0.0823
usemtl Material.011
s off
f 18/1/1 10/2/1 24/3/1 4/4/1 14/5/1
f 14/5/2 4/4/2 8/6/2 15/7/2
f 17/8/3 12/9/3 21/10/3 20/11/3 6/12/3 16/13/3
f 16/13/4 6/12/4 19/14/4 2/15/4 13/16/4
f 9/17/5 11/18/5 28/19/5 27/20/5 1/21/5
f 12/9/6 22/22/6 21/10/6
f 8/6/7 4/23/7 24/24/7 25/25/7 22/22/7 23/26/7
f 3/27/8 7/28/8 11/18/8 9/17/8
f 15/7/3 8/6/3 23/26/3 12/9/3 17/8/3
f 13/29/1 2/30/1 26/31/1 10/2/1 18/1/1
f 1/32/1 13/29/1 18/1/1 9/33/1
f 7/28/3 15/7/3 17/8/3 11/18/3
f 5/34/4 16/13/4 13/16/4 1/35/4 27/36/4
f 11/18/3 17/8/3 16/13/3 5/34/3 28/19/3
f 3/37/2 14/5/2 15/7/2 7/28/2
f 9/33/1 18/1/1 14/5/1 3/37/1
f 20/11/9 19/38/9 6/12/9
f 21/10/10 22/22/10 25/25/10 26/39/10 2/40/10 19/38/10 20/11/10
f 23/26/11 22/22/11 12/9/11
f 25/25/12 24/24/12 10/41/12
f 26/39/13 25/25/13 10/41/13
f 27/20/14 28/19/14 5/34/14
