# Blender v3.2.0 OBJ File: 'EnvironmentalPieces.blend'
# www.blender.org
mtllib Rope.mtl
o Rope.001_Cube.002
v -11.537415 0.350837 0.009271
v 9.517467 0.350847 0.009266
v -11.537416 0.325797 0.019642
v 9.517465 0.325810 0.019637
v -11.537416 0.315427 0.044679
v 9.517464 0.315437 0.044674
v -11.537415 0.325798 0.069717
v 9.517464 0.325809 0.069712
v -11.537416 0.350836 0.080088
v 9.517464 0.350846 0.080083
v -11.537418 0.375872 0.069717
v 9.517464 0.375884 0.069712
v -11.537415 0.386246 0.044680
v 9.517466 0.386255 0.044674
v -11.537416 0.375875 0.019642
v 9.517466 0.375883 0.019637
v -8.529574 -0.221946 0.009270
v -5.521732 -0.565614 0.009269
v -2.513893 -0.718352 0.009269
v 0.493945 -0.718350 0.009268
v 3.501785 -0.565608 0.009267
v 6.509626 -0.221937 0.009267
v 6.509625 -0.246974 0.019638
v 3.501785 -0.590646 0.019638
v 0.493945 -0.743388 0.019639
v -2.513894 -0.743390 0.019640
v -5.521736 -0.590649 0.019641
v -8.529579 -0.246983 0.019641
v 6.509624 -0.257346 0.044675
v 3.501785 -0.601016 0.044676
v 0.493945 -0.753758 0.044677
v -2.513895 -0.753761 0.044677
v -5.521733 -0.601021 0.044678
v -8.529576 -0.257356 0.044678
v 6.509625 -0.246974 0.069712
v 3.501785 -0.590647 0.069713
v 0.493944 -0.743389 0.069714
v -2.513894 -0.743391 0.069715
v -5.521734 -0.590648 0.069716
v -8.529577 -0.246982 0.069716
v 6.509624 -0.221938 0.080083
v 3.501786 -0.565609 0.080084
v 0.493947 -0.718353 0.080085
v -2.513896 -0.718353 0.080086
v -5.521733 -0.565613 0.080086
v -8.529577 -0.221948 0.080087
v 6.509624 -0.196899 0.069713
v 3.501786 -0.540570 0.069713
v 0.493948 -0.693314 0.069714
v -2.513895 -0.693314 0.069715
v -5.521732 -0.540574 0.069716
v -8.529574 -0.196907 0.069716
v 6.509626 -0.186528 0.044675
v 3.501785 -0.530199 0.044676
v 0.493944 -0.682941 0.044677
v -2.513894 -0.682943 0.044678
v -5.521733 -0.530205 0.044678
v -8.529574 -0.186538 0.044678
v 6.509626 -0.196901 0.019638
v 3.501785 -0.540571 0.019638
v 0.493946 -0.693315 0.019639
v -2.513895 -0.693314 0.019640
v -5.521732 -0.540574 0.019641
v -8.529576 -0.196909 0.019641
v -1.009976 -0.756536 0.009269
v -1.009974 -0.781573 0.019639
v -1.009973 -0.791948 0.044677
v -1.009975 -0.781574 0.069715
v -1.009974 -0.756539 0.080085
v -1.009973 -0.731501 0.069714
v -1.009974 -0.721131 0.044677
v -1.009973 -0.731500 0.019639
vt 0.261283 0.230981
vt 0.254396 0.228671
vt 0.254490 0.228601
vt 0.261377 0.230911
vt 0.254585 0.228530
vt 0.261472 0.230840
vt 0.254679 0.228460
vt 0.261566 0.230770
vt 0.254774 0.228389
vt 0.261661 0.230699
vt 0.260905 0.231263
vt 0.254017 0.228953
vt 0.254112 0.228882
vt 0.260999 0.231193
vt 0.254207 0.228812
vt 0.261094 0.231122
vt 0.279436 0.237817
vt 0.279436 0.237817
vt 0.279436 0.237817
vt 0.279436 0.237817
vt 0.279436 0.237817
vt 0.279436 0.237817
vt 0.279436 0.237817
vt 0.279436 0.237817
vt 0.254301 0.228742
vt 0.261188 0.231052
vt 0.279436 0.237817
vt 0.279436 0.237817
vt 0.279436 0.237817
vt 0.279436 0.237817
vt 0.279436 0.237817
vt 0.279436 0.237817
vt 0.279436 0.237817
vt 0.279436 0.237817
vt 0.302511 0.244912
vt 0.295624 0.242602
vt 0.295719 0.242531
vt 0.302606 0.244841
vt 0.288737 0.240292
vt 0.288832 0.240221
vt 0.281850 0.237982
vt 0.281944 0.237911
vt 0.278406 0.236827
vt 0.274963 0.235672
vt 0.275057 0.235601
vt 0.278501 0.236756
vt 0.268075 0.233362
vt 0.268170 0.233291
vt 0.302417 0.244982
vt 0.295530 0.242672
vt 0.288642 0.240362
vt 0.281755 0.238052
vt 0.278312 0.236897
vt 0.274868 0.235742
vt 0.267981 0.233432
vt 0.302322 0.245053
vt 0.295435 0.242743
vt 0.288548 0.240433
vt 0.281661 0.238123
vt 0.278217 0.236968
vt 0.274773 0.235813
vt 0.267886 0.233503
vt 0.302228 0.245123
vt 0.295341 0.242813
vt 0.288453 0.240503
vt 0.281566 0.238193
vt 0.278123 0.237038
vt 0.274679 0.235883
vt 0.267792 0.233573
vt 0.302890 0.244630
vt 0.296002 0.242320
vt 0.296097 0.242249
vt 0.302984 0.244559
vt 0.289115 0.240010
vt 0.289210 0.239939
vt 0.282228 0.237700
vt 0.282322 0.237629
vt 0.278784 0.236545
vt 0.275341 0.235390
vt 0.275435 0.235319
vt 0.278879 0.236474
vt 0.268454 0.233080
vt 0.268548 0.233009
vt 0.302795 0.244700
vt 0.295908 0.242390
vt 0.289021 0.240080
vt 0.282133 0.237770
vt 0.278690 0.236615
vt 0.275246 0.235460
vt 0.268359 0.233150
vt 0.302700 0.244771
vt 0.295813 0.242461
vt 0.288926 0.240151
vt 0.282039 0.237841
vt 0.278595 0.236686
vt 0.275152 0.235531
vt 0.268265 0.233221
vn 0.0028 -0.0090 -1.0000
vn 0.6268 0.0356 -0.7784
vn 0.6780 -0.5018 -0.5371
vn 0.1075 -0.7062 -0.6998
vn 0.6994 -0.7147 0.0000
vn 0.1491 -0.9888 -0.0000
vn 0.6780 -0.5018 0.5371
vn 0.1075 -0.7062 0.6998
vn 0.6268 0.0356 0.7784
vn 0.0028 -0.0090 1.0000
vn 0.5777 0.5946 0.5591
vn -0.1062 0.6974 0.7088
vn 0.5585 0.8295 -0.0000
vn -0.1518 0.9884 -0.0000
vn 0.5778 0.5946 -0.5591
vn -0.1062 0.6974 -0.7088
vn -0.6268 0.0357 -0.7784
vn -0.6780 -0.5018 -0.5371
vn -0.6995 -0.7146 0.0000
vn -0.6780 -0.5018 0.5371
vn -0.6268 0.0357 0.7784
vn -0.5778 0.5946 0.5591
vn -0.5584 0.8296 0.0000
vn -0.5778 0.5946 -0.5591
vn 0.1062 0.6974 -0.7088
vn -0.0028 -0.0090 -1.0000
vn 0.0579 0.7017 -0.7101
vn -0.0013 -0.0077 -1.0000
vn 0.0269 0.7052 -0.7085
vn -0.0002 -0.0031 -1.0000
vn -0.0000 0.7040 -0.7102
vn -0.0269 0.7052 -0.7085
vn 0.0002 -0.0031 -1.0000
vn -0.0000 -0.0062 -1.0000
vn -0.0579 0.7017 -0.7101
vn 0.0013 -0.0077 -1.0000
vn 0.1518 0.9884 -0.0000
vn 0.0828 0.9966 -0.0000
vn 0.0382 0.9993 0.0000
vn 0.0000 1.0000 0.0000
vn -0.0382 0.9993 -0.0000
vn -0.0828 0.9966 -0.0000
vn 0.1062 0.6974 0.7088
vn 0.0579 0.7017 0.7101
vn 0.0269 0.7052 0.7085
vn -0.0000 0.7040 0.7102
vn -0.0269 0.7052 0.7085
vn -0.0579 0.7017 0.7101
vn -0.0028 -0.0090 1.0000
vn -0.0013 -0.0077 1.0000
vn -0.0002 -0.0031 1.0000
vn 0.0000 -0.0062 1.0000
vn 0.0002 -0.0031 1.0000
vn 0.0013 -0.0077 1.0000
vn -0.1075 -0.7062 0.6998
vn -0.0585 -0.7093 0.7025
vn -0.0270 -0.7083 0.7054
vn 0.0000 -0.7102 0.7040
vn 0.0270 -0.7083 0.7054
vn 0.0585 -0.7093 0.7024
vn -0.1491 -0.9888 0.0000
vn -0.0815 -0.9967 0.0000
vn -0.0379 -0.9993 -0.0000
vn 0.0000 -1.0000 -0.0000
vn 0.0379 -0.9993 -0.0000
vn 0.0815 -0.9967 -0.0000
vn -0.1075 -0.7062 -0.6998
vn -0.0585 -0.7093 -0.7025
vn -0.0270 -0.7083 -0.7054
vn 0.0000 -0.7102 -0.7040
vn 0.0270 -0.7083 -0.7054
vn 0.0585 -0.7093 -0.7024
usemtl Material.010
s 1
f 22/1/1 2/2/2 4/3/3 23/4/4
f 23/4/4 4/3/3 6/5/5 29/6/6
f 29/6/6 6/5/5 8/7/7 35/8/8
f 35/8/8 8/7/7 10/9/9 41/10/10
f 41/11/10 10/12/9 12/13/11 47/14/12
f 47/14/12 12/13/11 14/15/13 53/16/14
f 4/17/3 2/18/2 16/19/15 14/20/13 12/21/11 10/22/9 8/23/7 6/24/5
f 53/16/14 14/15/13 16/25/15 59/26/16
f 59/26/16 16/25/15 2/2/2 22/1/1
f 1/27/17 3/28/18 5/29/19 7/30/20 9/31/21 11/32/22 13/33/23 15/34/24
f 15/35/24 64/36/25 17/37/26 1/38/17
f 64/36/25 63/39/27 18/40/28 17/37/26
f 63/39/27 62/41/29 19/42/30 18/40/28
f 72/43/31 61/44/32 20/45/33 65/46/34
f 61/44/32 60/47/35 21/48/36 20/45/33
f 60/47/35 59/26/16 22/1/1 21/48/36
f 13/49/23 58/50/37 64/36/25 15/35/24
f 58/50/37 57/51/38 63/39/27 64/36/25
f 57/51/38 56/52/39 62/41/29 63/39/27
f 71/53/40 55/54/41 61/44/32 72/43/31
f 55/54/41 54/55/42 60/47/35 61/44/32
f 54/55/42 53/16/14 59/26/16 60/47/35
f 11/56/22 52/57/43 58/50/37 13/49/23
f 52/57/43 51/58/44 57/51/38 58/50/37
f 51/58/44 50/59/45 56/52/39 57/51/38
f 70/60/46 49/61/47 55/54/41 71/53/40
f 49/61/47 48/62/48 54/55/42 55/54/41
f 48/62/48 47/14/12 53/16/14 54/55/42
f 9/63/21 46/64/49 52/57/43 11/56/22
f 46/64/49 45/65/50 51/58/44 52/57/43
f 45/65/50 44/66/51 50/59/45 51/58/44
f 69/67/52 43/68/53 49/61/47 70/60/46
f 43/68/53 42/69/54 48/62/48 49/61/47
f 42/69/54 41/11/10 47/14/12 48/62/48
f 7/70/20 40/71/55 46/72/49 9/73/21
f 40/71/55 39/74/56 45/75/50 46/72/49
f 39/74/56 38/76/57 44/77/51 45/75/50
f 68/78/58 37/79/59 43/80/53 69/81/52
f 37/79/59 36/82/60 42/83/54 43/80/53
f 36/82/60 35/8/8 41/10/10 42/83/54
f 5/84/19 34/85/61 40/71/55 7/70/20
f 34/85/61 33/86/62 39/74/56 40/71/55
f 33/86/62 32/87/63 38/76/57 39/74/56
f 67/88/64 31/89/65 37/79/59 68/78/58
f 31/89/65 30/90/66 36/82/60 37/79/59
f 30/90/66 29/6/6 35/8/8 36/82/60
f 3/91/18 28/92/67 34/85/61 5/84/19
f 28/92/67 27/93/68 33/86/62 34/85/61
f 27/93/68 26/94/69 32/87/63 33/86/62
f 66/95/70 25/96/71 31/89/65 67/88/64
f 25/96/71 24/97/72 30/90/66 31/89/65
f 24/97/72 23/4/4 29/6/6 30/90/66
f 1/38/17 17/37/26 28/92/67 3/91/18
f 17/37/26 18/40/28 27/93/68 28/92/67
f 18/40/28 19/42/30 26/94/69 27/93/68
f 65/46/34 20/45/33 25/96/71 66/95/70
f 20/45/33 21/48/36 24/97/72 25/96/71
f 21/48/36 22/1/1 23/4/4 24/97/72
f 19/42/30 65/46/34 66/95/70 26/94/69
f 26/94/69 66/95/70 67/88/64 32/87/63
f 32/87/63 67/88/64 68/78/58 38/76/57
f 38/76/57 68/78/58 69/81/52 44/77/51
f 44/66/51 69/67/52 70/60/46 50/59/45
f 50/59/45 70/60/46 71/53/40 56/52/39
f 56/52/39 71/53/40 72/43/31 62/41/29
f 62/41/29 72/43/31 65/46/34 19/42/30
