# Blender v3.2.0 OBJ File: 'EnvironmentalPieces.blend'
# www.blender.org
mtllib Oar.mtl
o Oars_Cylinder.001
v 0.000000 0.066790 -0.466987
v 0.062417 0.033395 -0.588336
v 0.095281 0.051966 1.280402
v 0.062417 -0.033395 -0.588336
v 0.095281 -0.051966 1.280402
v -0.000000 -0.066790 -0.466987
v -0.062417 -0.033395 -0.588336
v -0.095281 -0.051966 1.280402
v -0.062417 0.033395 -0.588336
v -0.095281 0.051966 1.280402
v 0.263734 0.030968 -1.064307
v 0.263734 -0.030968 -1.064307
v -0.263734 -0.030968 -1.064307
v -0.263734 0.030968 -1.064307
v 0.263734 0.030968 -1.723724
v 0.263734 -0.030968 -1.723724
v -0.263734 -0.030968 -1.723724
v -0.263734 0.030968 -1.723724
v 0.169201 0.030968 -1.780085
v 0.169201 -0.030968 -1.780085
v -0.169201 -0.030968 -1.780085
v -0.169201 0.030968 -1.780085
v 0.068717 0.030968 -1.809439
v 0.068717 -0.030968 -1.809439
v -0.068717 -0.030968 -1.809439
v -0.068717 0.030968 -1.809439
v 0.000000 0.065721 1.034608
v -0.056917 0.032861 1.034608
v -0.056917 -0.032861 1.034608
v -0.000000 -0.065722 1.034608
v 0.056917 -0.032861 1.034608
v 0.056917 0.032861 1.034608
v -0.095281 0.051966 1.104835
v -0.095281 -0.051966 1.104835
v -0.000000 -0.065722 1.104835
v 0.095281 -0.051966 1.104835
v 0.095281 0.051966 1.104835
v 0.000000 0.065721 1.104835
v 0.160138 0.032861 1.251681
v 0.160138 0.032861 1.133556
v 0.160138 -0.032861 1.251681
v 0.160138 -0.032861 1.133556
v -0.160138 -0.032861 1.251681
v -0.160138 -0.032861 1.133556
v -0.160138 0.032861 1.251681
v -0.160138 0.032861 1.133556
v 0.000000 0.049387 0.119800
v 0.042770 0.024693 0.093389
v 0.042770 -0.024693 0.093389
v 0.000000 -0.049387 0.119800
v -0.042770 -0.024693 0.093389
v -0.042770 0.024693 0.093389
v 0.000000 0.065721 1.034608
v -0.263734 0.030968 -1.064307
v -0.062417 0.033395 -0.588336
v -0.062417 -0.033395 -0.588336
v -0.263734 -0.030968 -1.064307
v 0.263734 -0.030968 -1.064307
v 0.062417 -0.033395 -0.588336
v 0.062417 0.033395 -0.588336
v 0.263734 0.030968 -1.064307
v 0.263734 0.030968 -1.723724
v 0.263734 0.030968 -1.723724
v 0.263734 -0.030968 -1.723724
v 0.263734 -0.030968 -1.723724
v -0.263734 -0.030968 -1.723724
v -0.263734 -0.030968 -1.723724
v -0.263734 0.030968 -1.723724
v -0.263734 0.030968 -1.723724
v -0.169201 0.030968 -1.780085
v -0.169201 -0.030968 -1.780085
v 0.169201 -0.030968 -1.780085
v 0.169201 0.030968 -1.780085
v -0.068717 0.030968 -1.809439
v -0.068717 -0.030968 -1.809439
v 0.068717 -0.030968 -1.809439
v 0.068717 0.030968 -1.809439
v 0.000000 0.049387 0.119800
v -0.095281 0.051966 1.104835
v -0.056917 0.032861 1.034608
v -0.095281 -0.051966 1.104835
v -0.056917 -0.032861 1.034608
v -0.000000 -0.065722 1.034608
v 0.095281 -0.051966 1.104835
v 0.056917 -0.032861 1.034608
v 0.095281 0.051966 1.104835
v 0.056917 0.032861 1.034608
v 0.042770 0.024693 0.093389
v 0.042770 -0.024693 0.093389
v 0.000000 -0.049387 0.119800
v -0.042770 -0.024693 0.093389
v -0.042770 0.024693 0.093389
v 0.160138 0.032861 1.251681
v 0.160138 0.032861 1.251681
v 0.160138 0.032861 1.133556
v 0.160138 0.032861 1.133556
v 0.160138 -0.032861 1.251681
v 0.160138 -0.032861 1.251681
v 0.160138 -0.032861 1.133556
v 0.160138 -0.032861 1.133556
v -0.160138 -0.032861 1.251681
v -0.160138 -0.032861 1.251681
v -0.160138 -0.032861 1.133556
v -0.160138 -0.032861 1.133556
v -0.160138 0.032861 1.251681
v -0.160138 0.032861 1.251681
v -0.160138 0.032861 1.133556
v -0.160138 0.032861 1.133556
v 0.095281 -0.051966 1.280402
v 0.095281 0.051966 1.280402
v -0.095281 0.051966 1.280402
v -0.095281 -0.051966 1.280402
vt 0.515436 0.893342
vt 0.514689 0.882270
vt 0.515329 0.881927
vt 0.512794 0.899352
vt 0.526521 0.898513
vt 0.526521 0.899233
vt 0.522578 0.882270
vt 0.521824 0.893344
vt 0.521939 0.881926
vt 0.523484 0.893342
vt 0.522737 0.882270
vt 0.523376 0.881927
vt 0.513355 0.894313
vt 0.514607 0.894280
vt 0.513387 0.896575
vt 0.512794 0.897824
vt 0.526521 0.896985
vt 0.526521 0.897705
vt 0.514531 0.882270
vt 0.513776 0.893344
vt 0.513891 0.881926
vt 0.544003 0.898421
vt 0.536467 0.899360
vt 0.536467 0.898386
vt 0.544003 0.896893
vt 0.536467 0.897832
vt 0.536467 0.896858
vt 0.553620 0.898421
vt 0.544003 0.899324
vt 0.553620 0.896893
vt 0.544003 0.897797
vt 0.533350 0.854964
vt 0.534955 0.854060
vt 0.534955 0.854964
vt 0.526688 0.854060
vt 0.528293 0.854964
vt 0.526688 0.854964
vt 0.531823 0.854964
vt 0.533350 0.854060
vt 0.528293 0.854060
vt 0.529819 0.854964
vt 0.529819 0.854060
vt 0.518640 0.865412
vt 0.523609 0.872663
vt 0.521707 0.872663
vt 0.520080 0.854508
vt 0.526675 0.855366
vt 0.518640 0.855366
vt 0.521611 0.854060
vt 0.525235 0.854508
vt 0.522658 0.874387
vt 0.517188 0.854508
vt 0.513563 0.854060
vt 0.515657 0.854060
vt 0.518628 0.855366
vt 0.512032 0.854508
vt 0.526675 0.865412
vt 0.515561 0.872663
vt 0.510592 0.865412
vt 0.518628 0.865412
vt 0.515859 0.894310
vt 0.515832 0.896572
vt 0.526688 0.858789
vt 0.527925 0.859824
vt 0.526966 0.859824
vt 0.522655 0.894280
vt 0.521435 0.896575
vt 0.521403 0.894313
vt 0.523880 0.896572
vt 0.511627 0.898103
vt 0.510592 0.896866
vt 0.511627 0.896587
vt 0.514597 0.893342
vt 0.512794 0.896866
vt 0.522662 0.893342
vt 0.522645 0.893342
vt 0.511627 0.899631
vt 0.512794 0.898394
vt 0.514614 0.893342
vt 0.527646 0.861559
vt 0.526688 0.859836
vt 0.527646 0.859836
vt 0.526688 0.861571
vt 0.527646 0.863293
vt 0.526688 0.863293
vt 0.526688 0.856010
vt 0.527925 0.854976
vt 0.528203 0.856010
vt 0.512489 0.894695
vt 0.520537 0.894695
vt 0.510592 0.898394
vt 0.511627 0.898115
vt 0.523907 0.894310
vt 0.524755 0.896213
vt 0.516708 0.896213
vt 0.528203 0.858789
vt 0.514610 0.874387
vt 0.513659 0.872663
vt 0.553620 0.899324
vt 0.553620 0.897797
vt 0.531823 0.854060
vt 0.523705 0.854060
vt 0.510592 0.855366
vt 0.510592 0.897824
vt 0.526688 0.861559
vt 0.527646 0.861571
vt 0.526966 0.854976
vt 0.512511 0.896217
vt 0.520559 0.896217
vt 0.510592 0.899352
vt 0.524774 0.894691
vt 0.516726 0.894691
vn -0.4930 0.8699 -0.0150
vn -0.9999 -0.0000 -0.0150
vn -0.4980 -0.8670 -0.0153
vn -0.4950 -0.8688 -0.0151
vn -0.4930 -0.8699 -0.0150
vn 0.4930 -0.8699 -0.0150
vn 0.1429 0.9897 0.0000
vn 0.9999 -0.0000 -0.0150
vn 0.4980 0.8671 -0.0153
vn 0.4950 0.8688 -0.0151
vn 0.4930 0.8699 -0.0150
vn -0.9210 0.0000 0.3895
vn 0.9210 -0.0000 0.3895
vn -1.0000 0.0000 0.0000
vn 1.0000 0.0000 -0.0000
vn -0.5121 0.0000 -0.8589
vn 0.5121 -0.0000 -0.8589
vn -0.2804 0.0000 -0.9599
vn 0.2804 -0.0000 -0.9599
vn 0.0000 0.0000 -1.0000
vn -0.0000 -1.0000 -0.0051
vn -0.0000 -1.0000 -0.0000
vn 0.0000 -0.9642 -0.2653
vn 0.0000 1.0000 0.0000
vn -0.0000 -1.0000 0.0003
vn -0.0000 -1.0000 -0.0045
vn 0.0000 1.0000 -0.0051
vn 0.0000 1.0000 -0.0045
vn -0.0000 1.0000 0.0003
vn -0.1429 0.9897 0.0000
vn 0.4049 -0.0000 0.9144
vn -0.1429 -0.9897 -0.0000
vn -0.0000 -0.9969 0.0781
vn 0.4049 0.0000 -0.9144
vn -0.0000 0.9969 0.0781
vn 0.5000 0.8660 0.0000
vn 0.8776 0.0000 -0.4794
vn 0.5000 -0.8660 -0.0000
vn -0.5000 -0.8660 -0.0000
vn -0.8776 0.0000 -0.4794
vn -0.5000 0.8660 -0.0000
vn -0.4049 0.0000 0.9144
vn 0.2826 0.9592 0.0000
vn -0.2826 -0.9592 -0.0000
vn -0.4049 0.0000 -0.9144
vn 0.2826 -0.9592 -0.0000
vn -0.2826 0.9592 0.0000
vn 0.0000 0.0000 1.0000
vn -0.0000 0.9642 -0.2653
vn 0.5113 0.8590 0.0255
vn 0.5105 0.8595 0.0256
vn 0.5099 0.8598 0.0257
vn 0.9996 -0.0000 0.0288
vn 0.5099 -0.8598 0.0257
vn -0.5111 -0.8591 0.0255
vn -0.5104 -0.8595 0.0256
vn -0.5099 -0.8598 0.0257
vn -0.9996 0.0000 0.0288
vn -0.5099 0.8598 0.0257
vn 0.1429 -0.9897 -0.0000
vn -0.4999 0.8659 -0.0155
vn -0.4999 -0.8659 -0.0155
vn 0.4999 -0.8659 -0.0155
vn 0.4999 0.8659 -0.0155
vn 0.1350 0.9350 -0.3281
vn 0.1350 -0.9350 -0.3281
vn -0.1350 -0.9350 -0.3281
vn -0.1350 0.9350 -0.3281
vn 0.5116 0.8589 0.0255
vn 0.5116 -0.8589 0.0255
vn -0.5116 -0.8589 0.0255
vn -0.5116 0.8589 0.0255
usemtl medievalfantasyforest_unwrap.001
s 1
f 80/1/1 78/2/1 92/3/1
f 82/4/2 52/5/2 51/6/2
f 50/7/3 29/8/4 91/9/5
f 85/10/6 90/11/6 89/12/6
f 86/13/7 38/14/7 110/15/7
f 87/16/8 49/17/8 48/18/8
f 47/19/9 32/20/10 88/21/11
f 54/22/12 7/23/12 55/24/12
f 58/25/13 2/26/13 59/27/13
f 69/28/14 57/29/14 54/22/14
f 65/30/15 61/31/15 58/25/15
f 70/32/16 66/33/16 68/34/16
f 64/35/17 73/36/17 62/37/17
f 74/38/18 71/39/18 70/32/18
f 72/40/19 77/41/19 73/36/19
f 76/42/20 74/38/20 77/41/20
f 13/43/21 4/44/21 56/45/21
f 21/46/22 16/47/22 67/48/22
f 25/49/22 20/50/22 21/46/22
f 4/44/23 6/51/23 56/45/23
f 22/52/24 23/53/24 26/54/24
f 18/55/24 19/56/24 22/52/24
f 67/48/22 16/47/22 12/57/25 13/43/26
f 9/58/27 11/59/28 14/60/29
f 79/61/30 10/62/30 38/14/30
f 3/63/31 97/64/31 94/65/31
f 35/66/32 112/67/32 81/68/32
f 5/69/33 112/67/33 35/66/33
f 37/70/34 100/71/34 36/72/34
f 38/14/35 10/62/35 110/15/35
f 38/14/36 32/20/36 53/73/36
f 37/70/37 31/74/37 87/16/37
f 85/10/38 35/66/38 30/75/38
f 35/66/39 29/8/39 83/76/39
f 34/77/40 28/78/40 82/4/40
f 80/1/41 38/14/41 27/79/41
f 101/80/14 107/81/14 103/82/14
f 93/83/15 99/84/15 95/85/15
f 111/86/42 102/87/42 8/88/42
f 110/15/43 96/89/43 86/13/43
f 112/67/44 104/90/44 81/68/44
f 34/77/45 108/91/45 33/92/45
f 84/93/46 41/94/46 5/69/46
f 79/61/47 106/95/47 10/62/47
f 3/63/48 8/88/48 109/96/48
f 1/97/49 60/98/49 9/58/49
f 1/97/50 88/21/51 60/98/52
f 48/18/53 59/27/53 2/26/53
f 89/12/54 6/51/54 4/44/54
f 6/51/55 91/9/56 56/45/57
f 51/6/58 55/24/58 7/23/58
f 92/3/59 1/97/59 9/58/59
f 84/93/60 5/69/60 35/66/60
f 80/1/61 27/79/61 78/2/61
f 82/4/2 28/78/2 52/5/2
f 50/7/3 83/76/62 29/8/4
f 85/10/63 30/75/63 90/11/63
f 87/16/8 31/74/8 49/17/8
f 47/19/9 53/73/64 32/20/10
f 54/22/12 57/29/12 7/23/12
f 58/25/13 61/31/13 2/26/13
f 69/28/14 17/99/14 57/29/14
f 65/30/15 63/100/15 61/31/15
f 70/32/16 71/39/16 66/33/16
f 64/35/17 72/40/17 73/36/17
f 74/38/18 75/101/18 71/39/18
f 72/40/19 76/42/19 77/41/19
f 76/42/20 75/101/20 74/38/20
f 13/43/26 12/57/25 4/44/21
f 21/46/22 20/50/22 16/47/22
f 25/49/22 24/102/22 20/50/22
f 22/52/24 19/56/24 23/53/24
f 18/55/24 15/103/24 19/56/24
f 9/58/27 60/98/27 11/59/27
f 3/63/31 109/96/31 97/64/31
f 37/70/34 40/104/34 100/71/34
f 38/14/65 86/13/65 32/20/65
f 37/70/37 36/72/37 31/74/37
f 85/10/66 84/93/66 35/66/66
f 35/66/67 81/68/67 29/8/67
f 34/77/40 33/92/40 28/78/40
f 80/1/68 79/61/68 38/14/68
f 101/80/14 105/105/14 107/81/14
f 93/83/15 98/106/15 99/84/15
f 111/86/42 45/107/42 102/87/42
f 110/15/43 39/108/43 96/89/43
f 112/67/44 43/109/44 104/90/44
f 34/77/45 44/110/45 108/91/45
f 84/93/46 42/111/46 41/94/46
f 79/61/47 46/112/47 106/95/47
f 3/63/48 111/86/48 8/88/48
f 1/97/50 47/19/69 88/21/51
f 48/18/53 49/17/53 59/27/53
f 89/12/70 90/11/70 6/51/70
f 6/51/55 50/7/71 91/9/56
f 51/6/58 52/5/58 55/24/58
f 92/3/72 78/2/72 1/97/72
f 14/60/29 11/59/28 15/103/24 18/55/24
