# Blender v3.2.0 OBJ File: 'EnvironmentalPieces.blend'
# www.blender.org
mtllib Rock_07.mtl
o FixedSmallRock3_meshId0_name.002
v -0.517303 0.220142 -0.419036
v -0.648307 -0.044938 0.241120
v -0.295892 0.311726 -0.116678
v -0.505448 -0.277942 0.586846
v -0.205411 -0.207616 0.656770
v 0.166048 0.174806 0.270466
v 0.386045 0.307784 -0.029024
v 0.335196 0.351891 -0.063131
v 0.572134 0.030572 0.250845
v 0.718120 0.108908 -0.062318
v 0.462065 0.135290 0.277534
v 0.827170 -0.272770 0.208516
v 0.462538 -0.277966 0.655522
v 0.780947 -0.008218 0.128122
v 0.708946 -0.268120 -0.222128
v -0.062576 -0.278944 0.707986
v -0.862117 -0.272638 0.080386
v -0.312938 -0.035818 -0.716114
v -0.670141 -0.265654 -0.540968
v -0.519565 0.023876 -0.663602
v -0.484190 0.168314 -0.594302
v -0.278119 0.162434 -0.619508
v 0.403078 0.299138 -0.177398
v -0.150812 -0.263386 -0.711530
v 0.045556 0.343472 -0.018836
v -0.798901 -0.116686 0.073066
vt 0.629484 0.123432
vt 0.629484 0.123432
vt 0.629484 0.123432
vt 0.629484 0.123432
vt 0.646059 0.162694
vt 0.646059 0.164432
vt 0.644854 0.164209
vt 0.644737 0.163208
vt 0.645850 0.162183
vt 0.629484 0.123432
vt 0.629484 0.123432
vt 0.653066 0.159464
vt 0.651929 0.160001
vt 0.629484 0.123432
vt 0.629484 0.123432
vt 0.653085 0.159481
vt 0.650107 0.162979
vt 0.629484 0.123432
vt 0.650107 0.162979
vt 0.629484 0.123432
vt 0.629484 0.123432
vt 0.629484 0.123432
vt 0.629484 0.123432
vt 0.629484 0.123432
vt 0.629484 0.123432
vt 0.649666 0.157920
vt 0.646130 0.158006
vt 0.652498 0.160491
vt 0.652872 0.160570
vt 0.636336 0.163239
vt 0.635969 0.160970
vt 0.637446 0.162800
vt 0.653085 0.163265
vt 0.652288 0.163865
vt 0.652288 0.163865
vt 0.653085 0.163265
vt 0.669110 0.136265
vt 0.667930 0.136604
vt 0.645981 0.161099
vt 0.629484 0.123432
vt 0.629484 0.123432
vt 0.651830 0.162835
vt 0.650291 0.161957
vt 0.645160 0.164629
vt 0.649666 0.161232
vt 0.646439 0.159585
vt 0.652526 0.160650
vt 0.667522 0.155406
vt 0.667522 0.155406
vt 0.636854 0.163349
vt 0.652027 0.161604
vt 0.652759 0.163926
vt 0.667930 0.136604
vt 0.669110 0.136265
vt 0.650651 0.163766
vt 0.629484 0.123432
vt 0.629484 0.123432
vn -0.5917 0.7818 0.1965
vn 0.0723 0.6732 0.7359
vn 0.5303 0.7307 0.4300
vn 0.6416 0.4530 0.6190
vn 0.9608 0.0880 -0.2628
vn -0.7681 0.3369 0.5445
vn -0.3024 -0.2341 -0.9240
vn -0.0958 0.4496 -0.8881
vn 0.0008 -0.9999 -0.0110
vn 0.5144 0.8575 0.0091
vn 0.4703 0.3185 -0.8231
vn -0.0075 0.9585 -0.2849
vn -0.8960 0.3504 -0.2729
vn -0.2600 0.1628 0.9518
vn -0.2345 0.7941 0.5607
vn 0.6347 0.5219 0.5698
vn 0.6437 0.7647 0.0293
vn 0.4749 0.3207 -0.8195
vn 0.4703 0.3185 -0.8230
vn -0.0965 0.8806 -0.4639
vn -0.2547 0.7771 0.5755
vn 0.1048 0.8554 0.5072
vn 0.3403 0.8530 0.3956
usemtl Material.007
s off
f 1/1/1 26/2/1 2/3/1 3/4/1
f 16/5/2 13/6/2 11/7/2 6/8/2 5/9/2
f 9/10/3 14/11/3 10/12/3 11/13/3
f 9/10/4 13/14/4 12/15/4 14/11/4
f 15/16/5 10/12/5 14/11/5 12/15/5
f 2/17/6 26/2/6 17/18/6 4/19/6
f 18/20/7 24/21/7 19/22/7 20/23/7
f 18/20/8 20/23/8 21/24/8 22/25/8
f 24/26/9 4/27/9 17/18/9 19/22/9
f 7/28/10 10/12/10 23/29/10
f 22/30/11 23/31/11 24/32/11
f 22/33/12 1/34/12 3/35/12 25/36/12
f 21/24/13 20/23/13 19/37/13 1/38/13
f 4/39/14 16/5/14 5/9/14
f 6/40/15 25/41/15 3/42/15 5/43/15
f 13/6/16 9/44/16 11/7/16
f 4/27/9 24/26/9 15/45/9 16/46/9
f 16/46/9 15/45/9 12/15/9 13/14/9
f 23/29/17 8/47/17 7/28/17
f 10/48/18 15/49/18 24/32/18 23/31/18
f 24/32/19 18/50/19 22/30/19
f 25/51/20 8/47/20 23/29/20
f 23/29/12 22/33/12 25/51/12
f 22/33/12 21/52/12 1/34/12
f 26/53/13 1/38/13 19/37/13 17/54/13
f 2/55/21 4/19/21 5/43/21 3/42/21
f 8/56/22 25/41/22 6/40/22 7/57/22
f 11/13/23 10/12/23 7/57/23 6/40/23
