# Blender v3.2.0 OBJ File: 'EnvironmentalPieces.blend'
# www.blender.org
mtllib Rock_04.mtl
o FixedRockMed2_meshId0_name.007
v 0.106162 0.164284 -0.161765
v 0.012783 0.176074 -0.152504
v 0.119844 0.179549 -0.128895
v -0.120809 -0.044932 0.144876
v 0.070307 -0.105971 0.211611
v 0.075895 -0.029151 0.183643
v 0.030896 -0.077517 0.206785
v -0.134181 0.104261 -0.097148
v -0.149742 0.073323 -0.095195
v -0.089330 -0.085829 0.182137
v -0.085830 -0.126115 0.178626
v -0.096225 0.100962 0.046785
v -0.066342 0.133800 -0.155638
v -0.055268 -0.017209 -0.202358
v 0.094489 -0.100807 0.206556
v 0.115542 -0.127687 0.196913
v -0.206078 -0.125438 -0.078472
v -0.197917 -0.082485 0.024103
v -0.194098 0.002487 -0.062771
v 0.067285 -0.127293 0.208789
v 0.147943 0.142961 -0.022578
v 0.236299 0.034312 -0.065771
v 0.188760 0.080614 -0.186975
v -0.103257 0.117497 -0.016320
v 0.207785 -0.132319 -0.175172
v -0.125771 -0.126072 -0.159074
v 0.167242 0.013795 -0.199926
v 0.240098 0.025573 -0.115955
v 0.258156 -0.129092 -0.065662
v 0.253715 -0.128968 0.018763
v 0.080801 0.099026 0.093216
v -0.202378 -0.125374 0.008396
vt 0.642360 0.226986
vt 0.642502 0.229596
vt 0.641993 0.227074
vt 0.627919 0.189521
vt 0.627919 0.189521
vt 0.627919 0.189521
vt 0.627919 0.189521
vt 0.654897 0.226570
vt 0.654390 0.229734
vt 0.653653 0.229608
vt 0.639770 0.226310
vt 0.658200 0.231038
vt 0.658657 0.226294
vt 0.666907 0.200361
vt 0.666158 0.197837
vt 0.669004 0.197739
vt 0.668851 0.201998
vt 0.670305 0.201770
vt 0.670848 0.202074
vt 0.632070 0.237889
vt 0.630227 0.236851
vt 0.632070 0.235451
vt 0.627919 0.189521
vt 0.627919 0.189521
vt 0.642915 0.224895
vt 0.640641 0.223920
vt 0.640641 0.223920
vt 0.642520 0.229825
vt 0.640474 0.233290
vt 0.639305 0.232956
vt 0.671105 0.191139
vt 0.671105 0.199709
vt 0.627919 0.189521
vt 0.668462 0.191558
vt 0.668462 0.191558
vt 0.627919 0.189521
vt 0.627919 0.189521
vt 0.627919 0.189521
vt 0.670999 0.189521
vt 0.668121 0.189847
vt 0.660677 0.223365
vt 0.666870 0.222086
vt 0.666870 0.230730
vt 0.660087 0.227450
vt 0.657742 0.233486
vt 0.654462 0.233465
vt 0.654462 0.233465
vt 0.654897 0.226570
vt 0.653653 0.229608
vt 0.656015 0.225657
vt 0.655140 0.230820
vt 0.653679 0.233612
vt 0.655215 0.231043
vt 0.671019 0.201770
vt 0.668561 0.201476
vt 0.667224 0.200649
vt 0.670848 0.205881
vt 0.667529 0.207090
vt 0.666242 0.203460
vt 0.639305 0.232956
vt 0.665336 0.205771
vt 0.630425 0.237692
vt 0.641596 0.223713
vt 0.667170 0.191013
vt 0.665337 0.195746
vt 0.665353 0.195974
vt 0.665301 0.232570
vt 0.663691 0.232444
vt 0.663691 0.232444
vt 0.663935 0.220269
vt 0.665591 0.220178
vt 0.641915 0.234220
vt 0.641915 0.234220
vt 0.665353 0.195974
vn 0.0688 0.8936 -0.4436
vn 0.1247 0.3314 0.9352
vn -0.1930 -0.1018 0.9759
vn -0.0727 0.9457 0.3167
vn -0.6848 0.1691 -0.7089
vn 0.7348 0.3720 0.5672
vn -0.9952 0.0880 0.0423
vn 0.2346 -0.1602 0.9588
vn 0.7876 0.6151 -0.0377
vn -0.1656 0.9493 0.2672
vn -0.0517 -0.3399 -0.9390
vn 0.8420 0.0297 -0.5386
vn 0.9898 0.1324 0.0519
vn -0.0154 -0.9999 0.0048
vn -0.8223 0.4838 0.2998
vn -0.2027 0.5697 0.7965
vn -0.8194 -0.1200 0.5605
vn -0.6997 0.1512 -0.6983
vn -0.6915 0.1437 -0.7080
vn -0.6065 0.2576 -0.7522
vn 0.7641 0.6429 -0.0541
vn 0.5193 0.6718 -0.5282
vn -0.1071 0.9311 0.3487
vn 0.0328 -0.1581 -0.9869
vn 0.7581 -0.1199 -0.6410
vn -0.0728 0.2173 -0.9734
vn -0.0254 0.2581 -0.9658
vn -0.1151 0.2859 -0.9513
vn 0.0546 -0.9985 0.0043
vn 0.0050 -0.9999 0.0137
vn -0.0075 -1.0000 0.0008
vn -0.0069 -1.0000 0.0010
vn -0.8222 0.4065 0.3985
vn -0.4428 0.8965 -0.0124
vn -0.8486 0.4741 0.2347
usemtl Material.004
s off
f 1/1/1 2/2/1 3/3/1
f 5/4/2 15/5/2 6/6/2 7/7/2
f 7/8/3 10/9/3 11/10/3
f 21/11/4 2/2/4 12/12/4 31/13/4
f 8/14/5 13/15/5 14/16/5
f 6/17/6 15/18/6 16/19/6
f 17/20/7 18/21/7 19/22/7
f 15/5/8 5/4/8 20/23/8 16/24/8
f 23/25/9 3/3/9 21/26/9 22/27/9
f 2/28/10 24/29/10 12/30/10
f 14/16/11 25/31/11 26/32/11
f 29/33/12 25/34/12 27/35/12 28/36/12
f 22/37/13 30/38/13 29/39/13 28/40/13
f 11/41/14 26/42/14 25/43/14 20/44/14
f 12/12/15 9/45/15 19/46/15 18/47/15
f 5/48/3 7/8/3 11/10/3 20/49/3
f 6/50/16 31/13/16 7/8/16
f 4/51/16 10/9/16 7/8/16
f 18/47/17 32/52/17 4/53/17
f 32/52/17 11/10/17 4/53/17
f 11/10/17 10/9/17 4/51/17
f 17/54/18 19/55/18 26/32/18
f 26/32/19 19/55/19 9/56/19 14/16/19
f 9/56/20 8/14/20 14/16/20
f 16/19/6 30/57/6 6/17/6
f 6/17/6 30/57/6 22/58/6 31/59/6
f 31/60/16 12/30/16 4/51/16 7/8/16
f 22/58/6 21/61/6 31/59/6
f 17/20/7 32/62/7 18/21/7
f 22/27/21 28/63/21 23/25/21
f 23/25/22 1/1/22 3/3/22
f 21/11/23 3/3/23 2/2/23
f 14/16/24 27/35/24 25/31/24
f 23/64/25 28/40/25 27/35/25
f 27/35/26 2/65/26 1/1/26 23/25/26
f 27/35/27 14/16/27 2/65/27
f 14/16/28 13/15/28 2/66/28
f 25/43/29 29/67/29 30/68/29
f 30/68/30 16/69/30 20/44/30 25/43/30
f 11/41/31 32/70/31 26/42/31
f 32/70/32 17/71/32 26/42/32
f 18/47/33 4/53/33 12/12/33
f 2/66/34 13/72/34 8/73/34 24/74/34
f 24/74/35 8/73/35 9/45/35 12/12/35
