# Blender v3.2.0 OBJ File: 'Tree1.blend'
# www.blender.org
mtllib Pine_02.mtl
o Pine_02_Mesh.065
v -0.009639 4.753616 0.006607
v -0.046335 2.813345 -0.152879
v 0.070231 3.301918 -0.107616
v -0.030264 2.117035 -0.072072
v 0.190082 -0.002585 0.267805
v 0.285668 -0.002585 0.028846
v 0.210263 -0.002585 -0.215083
v 0.025054 -0.002585 -0.298355
v -0.186436 -0.002585 -0.245971
v -0.319235 -0.002585 -0.036776
v -0.255394 -0.002585 0.208700
v -0.040794 -0.002585 0.308630
v 0.116292 1.475605 0.093358
v 0.166786 1.477014 0.001556
v 0.137168 1.478625 -0.098960
v 0.044732 1.479412 -0.149311
v -0.056401 1.478833 -0.120003
v -0.106944 1.477308 -0.028202
v -0.077276 1.475813 0.072315
v 0.015210 1.475140 0.122668
v -0.020164 0.487372 0.171321
v -0.139940 0.487472 0.106086
v -0.178344 0.487687 -0.024195
v -0.112895 0.487910 -0.143216
v 0.018082 0.487991 -0.181246
v 0.137844 0.487863 -0.115999
v 0.176232 0.487617 0.014293
v 0.110799 0.487425 0.133303
v -0.191351 0.166504 0.145292
v -0.242725 0.144054 -0.029143
v -0.151302 0.171498 -0.176989
v 0.021153 0.189060 -0.249982
v 0.170259 0.165862 -0.153421
v 0.206369 0.205777 0.019277
v 0.134825 0.217570 0.180416
v -0.030915 0.168536 0.228132
v 0.120654 3.150148 -0.089201
v -0.021996 1.350162 -0.031045
v -0.258141 5.853619 0.180137
v -0.019426 3.614867 -0.164091
v 1.014185 2.599522 0.006502
v 0.903893 2.504301 0.001928
v 0.789179 2.624811 -0.796479
v 0.701326 2.525848 -0.719559
v 0.062685 2.677341 -1.206682
v 0.048830 2.568073 -1.088500
v -0.739259 2.711307 -0.983620
v -0.671819 2.595217 -0.887849
v -1.136887 2.690028 -0.266457
v -1.031465 2.578404 -0.241501
v -0.902089 2.642184 0.529226
v -0.822390 2.540025 0.475170
v -0.185129 2.611427 0.946640
v -0.176214 2.514032 0.848868
v 0.606906 2.600083 0.730824
v 0.537713 2.503992 0.653085
v 0.271584 1.984312 1.053726
v 0.243378 1.882740 0.979856
v 0.964347 1.992610 0.503027
v 0.888758 1.890433 0.467542
v 1.071135 2.017265 -0.381656
v 0.987857 1.911172 -0.355443
v 0.528980 2.045052 -1.081955
v 0.482657 1.933441 -1.006957
v -0.356295 2.048627 -1.188865
v -0.342110 1.936128 -1.106451
v -1.052129 2.025390 -0.638217
v -0.991900 1.917318 -0.594387
v -1.158786 2.000072 0.246518
v -1.090966 1.896117 0.228626
v -0.613612 1.987220 0.946863
v -0.581367 1.884963 0.880390
v 1.398724 1.105584 0.143415
v 1.305186 0.991571 0.133580
v 1.109715 1.120996 -0.925645
v 1.032753 1.002863 -0.865816
v 0.142186 1.130574 -1.470229
v 0.126975 1.010051 -1.374957
v -0.931091 1.122738 -1.170153
v -0.876793 1.004230 -1.094526
v -1.468260 1.109211 -0.200112
v -1.380372 0.994192 -0.188029
v -1.175062 1.104078 0.868680
v -1.104861 0.990217 0.811017
v -0.203445 1.104324 1.413010
v -0.196038 0.990335 1.319800
v 0.865869 1.102778 1.113168
v 0.804771 0.989174 1.039705
v 0.860939 3.329968 0.295251
v 0.773983 3.236671 0.243620
v 0.931269 3.404858 -0.476205
v 0.838690 3.298410 -0.450723
v 0.446727 3.463457 -1.073960
v 0.400690 3.350870 -0.989106
v -0.307676 3.471033 -1.148851
v -0.279207 3.357694 -1.056548
v -0.887035 3.422956 -0.656643
v -0.800390 3.314795 -0.613239
v -0.957593 3.348133 0.114835
v -0.865321 3.253120 0.081120
v -0.482251 3.297664 0.712249
v -0.438016 3.212780 0.618629
v 0.272581 3.290037 0.787150
v 0.242256 3.205897 0.686078
vt 0.358493 0.131849
vt 0.357403 0.140207
vt 0.352802 0.140676
vt 0.364418 0.131849
vt 0.355754 0.131849
vt 0.339231 0.139540
vt 0.352790 0.138623
vt 0.321726 0.131849
vt 0.325287 0.138842
vt 0.318906 0.137753
vt 0.320058 0.131849
vt 0.324857 0.138649
vt 0.339231 0.131849
vt 0.339231 0.138732
vt 0.339231 0.174292
vt 0.330933 0.174292
vt 0.328500 0.151253
vt 0.339231 0.151253
vt 0.327491 0.174292
vt 0.324054 0.151253
vt 0.330933 0.174292
vt 0.328500 0.151253
vt 0.339231 0.174292
vt 0.339231 0.151253
vt 0.347529 0.174292
vt 0.349962 0.151253
vt 0.350971 0.174292
vt 0.354408 0.151253
vt 0.347529 0.174292
vt 0.349962 0.151253
vt 0.339231 0.131849
vt 0.312360 0.131849
vt 0.481706 0.058721
vt 0.483842 0.071043
vt 0.477705 0.071043
vt 0.476198 0.058721
vt 0.462854 0.071043
vt 0.462848 0.058721
vt 0.476153 0.058721
vt 0.477660 0.071043
vt 0.462786 0.058721
vt 0.462786 0.071043
vt 0.449441 0.058721
vt 0.447929 0.071043
vt 0.443928 0.058721
vt 0.441792 0.071043
vt 0.449481 0.058721
vt 0.447974 0.071043
vt 0.484301 0.036997
vt 0.485910 0.050825
vt 0.472164 0.050825
vt 0.471512 0.036997
vt 0.452938 0.050825
vt 0.453629 0.036997
vt 0.484511 0.036997
vt 0.486131 0.050825
vt 0.472005 0.036997
vt 0.472697 0.050825
vt 0.454122 0.036997
vt 0.453470 0.050825
vt 0.441333 0.036997
vt 0.439724 0.050825
vt 0.441123 0.036997
vt 0.439503 0.050825
vt 0.482465 0.027566
vt 0.483848 0.040746
vt 0.492228 0.040738
vt 0.490296 0.027566
vt 0.483383 0.040738
vt 0.482035 0.027566
vt 0.463126 0.027566
vt 0.463143 0.040738
vt 0.443600 0.027566
vt 0.442251 0.040746
vt 0.435338 0.027566
vt 0.433406 0.040746
vt 0.443169 0.027566
vt 0.441786 0.040746
vt 0.462514 0.027566
vt 0.462491 0.040738
vt 0.477405 0.104623
vt 0.479445 0.116674
vt 0.479632 0.116674
vt 0.477576 0.104623
vt 0.467886 0.116674
vt 0.467013 0.104623
vt 0.466605 0.104623
vt 0.467432 0.116674
vt 0.451504 0.104623
vt 0.450631 0.116674
vt 0.440948 0.104623
vt 0.438885 0.116674
vt 0.441118 0.104623
vt 0.439078 0.116674
vt 0.451918 0.104623
vt 0.451091 0.116674
vt 0.462820 0.291639
vt 0.462820 0.092880
vt 0.462820 0.222689
vt 0.462820 0.064555
vt 0.462820 0.285956
vt 0.462820 0.067054
vt 0.459262 0.374764
vt 0.459262 0.144600
vn 0.8628 0.3582 0.3568
vn 0.9017 0.3304 -0.2788
vn 0.5413 0.3994 -0.7399
vn -0.3909 0.4062 -0.8259
vn -0.8259 0.3438 -0.4469
vn -0.8864 0.4137 0.2078
vn -0.3848 0.4110 0.8264
vn 0.1439 0.3961 0.9069
vn -0.4772 0.0602 0.8767
vn -0.9566 0.0702 0.2827
vn -0.8747 0.0611 -0.4808
vn -0.2785 0.0384 -0.9597
vn 0.4784 0.0154 -0.8780
vn 0.9592 0.0055 -0.2826
vn 0.8761 0.0146 0.4819
vn 0.2784 0.0373 0.9597
vn -0.9472 0.1788 0.2660
vn -0.8579 0.1622 -0.4875
vn -0.3473 0.1735 -0.9216
vn 0.5188 0.1728 -0.8372
vn 0.9613 0.1131 -0.2512
vn 0.8930 0.1284 0.4313
vn 0.2467 0.1739 0.9534
vn -0.4609 0.1753 0.8699
vn -0.4136 0.4528 0.7899
vn 0.1586 0.4128 0.8969
vn 0.8707 0.3473 0.3483
vn 0.9125 0.3131 -0.2632
vn 0.3989 0.2320 -0.8872
vn -0.2338 0.2335 -0.9438
vn -0.7645 0.4242 -0.4853
vn -0.8684 0.4414 0.2259
vn 0.6463 -0.7354 -0.2039
vn 0.6075 -0.7170 0.3418
vn 0.2997 -0.7262 -0.6188
vn -0.2177 -0.6987 -0.6815
vn -0.6342 -0.6782 -0.3712
vn -0.7319 -0.6579 0.1773
vn -0.3971 -0.6609 0.6368
vn 0.1814 -0.6911 0.6996
vn 0.5049 -0.5936 0.6267
vn -0.1005 -0.5656 0.8185
vn 0.7909 -0.6068 0.0792
vn 0.6199 -0.6027 -0.5026
vn 0.0954 -0.5813 -0.8081
vn -0.5067 -0.5506 -0.6634
vn -0.8439 -0.5238 -0.1159
vn -0.6705 -0.5355 0.5135
vn 0.7644 -0.6078 -0.2153
vn 0.6942 -0.6109 0.3807
vn 0.3870 -0.6029 -0.6977
vn -0.2135 -0.5911 -0.7779
vn -0.7083 -0.5815 -0.4001
vn -0.7836 -0.5836 0.2129
vn -0.3919 -0.5970 0.7000
vn 0.2131 -0.6095 0.7636
vn 0.7433 -0.6689 0.0061
vn 0.4618 -0.7339 0.4981
vn 0.5730 -0.6279 -0.5267
vn 0.0714 -0.6189 -0.7822
vn -0.4745 -0.6258 -0.6190
vn -0.7411 -0.6588 -0.1298
vn -0.5728 -0.7165 0.3982
vn -0.0722 -0.7557 0.6509
vn 0.8783 0.4175 -0.2330
vn 0.4617 0.4595 -0.7588
vn -0.2148 0.4872 -0.8465
vn -0.7742 0.4778 -0.4151
vn -0.8578 0.4316 0.2791
vn -0.4509 0.3894 0.8032
vn 0.2490 0.3720 0.8942
vn 0.8054 0.3828 0.4526
vn -0.3177 -0.9462 0.0609
vn -0.1921 -0.9539 0.2305
vn 0.0351 -0.9658 0.2568
vn 0.2225 -0.9699 0.0985
vn 0.2406 -0.9630 -0.1218
vn 0.1178 -0.9556 -0.2702
vn -0.0946 -0.9504 -0.2962
vn -0.2818 -0.9462 -0.1589
vn 0.4842 0.6190 0.6184
vn 0.7953 0.5956 0.1126
vn 0.6428 0.6019 -0.4738
vn 0.0955 0.6314 -0.7695
vn -0.4790 0.6612 -0.5774
vn -0.7347 0.6748 -0.0693
vn -0.5784 0.6719 0.4626
vn -0.0889 0.6509 0.7539
vn -0.1331 -0.9742 -0.1823
vn -0.2113 -0.9761 -0.0500
vn -0.1707 -0.9803 0.0989
vn -0.0249 -0.9834 0.1795
vn 0.1324 -0.9824 0.1319
vn 0.2037 -0.9790 -0.0007
vn 0.1625 -0.9762 -0.1438
vn 0.0243 -0.9744 -0.2234
vn 0.8383 0.4991 -0.2194
vn 0.4246 0.5141 -0.7453
vn -0.2290 0.5478 -0.8047
vn -0.7166 0.5790 -0.3888
vn -0.7761 0.5925 0.2158
vn -0.3971 0.5832 0.7086
vn 0.2257 0.5531 0.8020
vn 0.7501 0.5160 0.4137
vn -0.2675 -0.9616 0.0621
vn -0.1363 -0.9639 0.2288
vn 0.0762 -0.9646 0.2526
vn 0.2384 -0.9635 0.1218
vn 0.2610 -0.9624 -0.0758
vn 0.1339 -0.9618 -0.2389
vn -0.0755 -0.9611 -0.2657
vn -0.2426 -0.9605 -0.1365
vn 0.9052 0.4070 0.1220
vn 0.7033 0.4817 -0.5228
vn 0.0913 0.4837 -0.8705
vn -0.6138 0.3943 -0.6840
vn -0.9609 0.2699 -0.0617
vn -0.7593 0.1958 0.6207
vn -0.0944 0.2108 0.9730
vn 0.5998 0.2998 0.7418
vn -0.3778 -0.9185 -0.1169
vn -0.2975 -0.9428 0.1502
vn -0.0381 -0.9572 0.2869
vn 0.2487 -0.9476 0.2007
vn 0.3814 -0.9232 -0.0463
vn 0.2983 -0.9044 -0.3050
vn 0.0347 -0.8964 -0.4419
vn -0.2456 -0.9009 -0.3578
usemtl Material.002
s 1
f 5/1/1 34/2/1 35/3/1
f 6/4/2 7/5/2 34/2/2
f 7/5/3 32/6/3 33/7/3
f 32/6/4 9/8/4 31/9/4
f 9/8/5 30/10/5 31/9/5
f 30/10/6 11/11/6 29/12/6
f 11/11/7 12/13/7 36/14/7
f 36/14/8 5/1/8 35/3/8
f 20/15/9 19/16/9 22/17/9 21/18/9
f 19/16/10 18/19/10 23/20/10 22/17/10
f 18/19/11 17/21/11 24/22/11 23/20/11
f 17/21/12 16/23/12 25/24/12 24/22/12
f 16/23/13 15/25/13 26/26/13 25/24/13
f 15/25/14 14/27/14 27/28/14 26/26/14
f 14/27/15 13/29/15 28/30/15 27/28/15
f 13/29/16 20/15/16 21/18/16 28/30/16
f 22/17/17 23/20/17 30/10/17 29/12/17
f 23/20/18 24/22/18 31/9/18 30/10/18
f 24/22/19 25/24/19 32/6/19 31/9/19
f 25/24/20 26/26/20 33/7/20 32/6/20
f 26/26/21 27/28/21 34/2/21 33/7/21
f 27/28/22 28/30/22 35/3/22 34/2/22
f 28/30/23 21/18/23 36/14/23 35/3/23
f 21/18/24 22/17/24 29/12/24 36/14/24
f 11/11/25 36/14/25 29/12/25
f 12/13/26 5/1/26 36/14/26
f 5/1/27 6/4/27 34/2/27
f 34/2/28 7/5/28 33/7/28
f 7/5/29 8/31/29 32/6/29
f 8/31/30 9/8/30 32/6/30
f 10/32/31 30/10/31 9/8/31
f 10/32/32 11/11/32 30/10/32
f 44/33/33 43/34/33 41/35/33 42/36/33
f 55/37/34 56/38/34 42/36/34 41/35/34
f 46/39/35 45/40/35 43/34/35 44/33/35
f 48/41/36 47/42/36 45/40/36 46/39/36
f 50/43/37 49/44/37 47/42/37 48/41/37
f 52/45/38 51/46/38 49/44/38 50/43/38
f 54/47/39 53/48/39 51/46/39 52/45/39
f 56/38/40 55/37/40 53/48/40 54/47/40
f 60/49/41 59/50/41 57/51/41 58/52/41
f 71/53/42 72/54/42 58/52/42 57/51/42
f 62/55/43 61/56/43 59/50/43 60/49/43
f 64/57/44 63/58/44 61/56/44 62/55/44
f 66/59/45 65/60/45 63/58/45 64/57/45
f 68/61/46 67/62/46 65/60/46 66/59/46
f 70/63/47 69/64/47 67/62/47 68/61/47
f 72/54/48 71/53/48 69/64/48 70/63/48
f 76/65/49 75/66/49 73/67/49 74/68/49
f 87/69/50 88/70/50 74/68/50 73/67/50
f 78/71/51 77/72/51 75/66/51 76/65/51
f 80/73/52 79/74/52 77/72/52 78/71/52
f 82/75/53 81/76/53 79/74/53 80/73/53
f 84/77/54 83/78/54 81/76/54 82/75/54
f 86/79/55 85/80/55 83/78/55 84/77/55
f 88/70/56 87/69/56 85/80/56 86/79/56
f 92/81/57 91/82/57 89/83/57 90/84/57
f 103/85/58 104/86/58 90/84/58 89/83/58
f 94/87/59 93/88/59 91/82/59 92/81/59
f 96/89/60 95/90/60 93/88/60 94/87/60
f 98/91/61 97/92/61 95/90/61 96/89/61
f 100/93/62 99/94/62 97/92/62 98/91/62
f 102/95/63 101/96/63 99/94/63 100/93/63
f 104/86/64 103/85/64 101/96/64 102/95/64
f 41/35/65 43/34/65 1/97/65
f 43/34/66 45/40/66 1/97/66
f 45/40/67 47/42/67 1/97/67
f 47/42/68 49/44/68 1/97/68
f 49/44/69 51/46/69 1/97/69
f 51/46/70 53/48/70 1/97/70
f 53/48/71 55/37/71 1/97/71
f 55/37/72 41/35/72 1/97/72
f 44/33/73 42/36/73 2/98/73
f 46/39/74 44/33/74 2/98/74
f 48/41/75 46/39/75 2/98/75
f 50/43/76 48/41/76 2/98/76
f 52/45/77 50/43/77 2/98/77
f 54/47/78 52/45/78 2/98/78
f 56/38/79 54/47/79 2/98/79
f 42/36/80 56/38/80 2/98/80
f 57/51/81 59/50/81 3/99/81
f 59/50/82 61/56/82 3/99/82
f 61/56/83 63/58/83 3/99/83
f 63/58/84 65/60/84 3/99/84
f 65/60/85 67/62/85 3/99/85
f 67/62/86 69/64/86 3/99/86
f 69/64/87 71/53/87 3/99/87
f 71/53/88 57/51/88 3/99/88
f 60/49/89 58/52/89 4/100/89
f 62/55/90 60/49/90 4/100/90
f 64/57/91 62/55/91 4/100/91
f 66/59/92 64/57/92 4/100/92
f 68/61/93 66/59/93 4/100/93
f 70/63/94 68/61/94 4/100/94
f 72/54/95 70/63/95 4/100/95
f 58/52/96 72/54/96 4/100/96
f 73/67/97 75/66/97 37/101/97
f 75/66/98 77/72/98 37/101/98
f 77/72/99 79/74/99 37/101/99
f 79/74/100 81/76/100 37/101/100
f 81/76/101 83/78/101 37/101/101
f 83/78/102 85/80/102 37/101/102
f 85/80/103 87/69/103 37/101/103
f 87/69/104 73/67/104 37/101/104
f 76/65/105 74/68/105 38/102/105
f 78/71/106 76/65/106 38/102/106
f 80/73/107 78/71/107 38/102/107
f 82/75/108 80/73/108 38/102/108
f 84/77/109 82/75/109 38/102/109
f 86/79/110 84/77/110 38/102/110
f 88/70/111 86/79/111 38/102/111
f 74/68/112 88/70/112 38/102/112
f 89/83/113 91/82/113 39/103/113
f 91/82/114 93/88/114 39/103/114
f 93/88/115 95/90/115 39/103/115
f 95/90/116 97/92/116 39/103/116
f 97/92/117 99/94/117 39/103/117
f 99/94/118 101/96/118 39/103/118
f 101/96/119 103/85/119 39/103/119
f 103/85/120 89/83/120 39/103/120
f 92/81/121 90/84/121 40/104/121
f 94/87/122 92/81/122 40/104/122
f 96/89/123 94/87/123 40/104/123
f 98/91/124 96/89/124 40/104/124
f 100/93/125 98/91/125 40/104/125
f 102/95/126 100/93/126 40/104/126
f 104/86/127 102/95/127 40/104/127
f 90/84/128 104/86/128 40/104/128
