# Blender v3.2.0 OBJ File: 'Tree1.blend'
# www.blender.org
mtllib Pine_01.mtl
o Pine_01_Mesh.057
v 0.000000 4.727158 0.000001
v -0.000000 2.977869 0.000001
v 0.000000 3.499553 0.000001
v 0.000000 2.176728 0.000000
v 0.000000 6.838827 0.000001
v 0.000000 4.854687 0.000001
v 0.247875 -0.002585 -0.225126
v -0.000000 -0.002585 -0.294382
v -0.234374 -0.002585 -0.193109
v -0.297185 -0.002585 0.000000
v -0.222298 -0.002585 0.204606
v 0.000000 -0.002585 0.314069
v 0.237159 -0.002585 0.224126
v 0.313361 -0.002585 -0.000000
v 0.097013 1.493991 -0.097013
v -0.000000 1.493991 -0.137197
v -0.097013 1.493991 -0.097013
v -0.137198 1.493991 0.000000
v -0.097013 1.493991 0.097014
v 0.000000 1.493991 0.137198
v 0.097013 1.493991 0.097014
v 0.137198 1.493991 0.000000
v 0.177404 0.501194 -0.000000
v 0.125443 0.501195 0.125443
v 0.000000 0.501194 0.177404
v -0.125443 0.501195 0.125444
v -0.177404 0.501194 0.000000
v -0.125443 0.501195 -0.125443
v -0.000000 0.501194 -0.177404
v 0.125443 0.501195 -0.125443
v 0.168002 0.173921 0.168002
v 0.000000 0.150645 0.237591
v -0.156715 0.179011 0.162992
v -0.247801 0.197124 0.000000
v -0.168002 0.173228 -0.158490
v -0.000000 0.214447 -0.212390
v 0.168002 0.226631 -0.158639
v 0.233072 0.176060 -0.000000
v -0.001642 3.343954 0.000231
v -0.001642 1.364815 0.000231
v 0.000000 5.702847 0.000001
v 0.000000 3.799103 0.000001
v 0.772260 2.773575 -0.774723
v 0.693884 2.658262 -0.696097
v -0.001742 2.773575 -1.093882
v -0.001565 2.658262 -0.982864
v -0.774724 2.773575 -0.772260
v -0.696097 2.658262 -0.693883
v -1.093883 2.773575 0.001742
v -0.982865 2.658262 0.001566
v -0.772260 2.773575 0.774724
v -0.693884 2.658262 0.696098
v 0.001742 2.773575 1.093883
v 0.001565 2.658262 0.982865
v 0.774724 2.773575 0.772261
v 0.696097 2.658262 0.693884
v 1.093883 2.773575 -0.001741
v 0.982865 2.658262 -0.001565
v 1.084464 2.061922 -0.434658
v 1.008945 1.946237 -0.404390
v 0.459482 2.061922 -1.074181
v 0.427485 1.946237 -0.999379
v -0.434658 2.061922 -1.084464
v -0.404390 1.946237 -1.008945
v -1.074181 2.061922 -0.459482
v -0.999379 1.946237 -0.427485
v -1.084464 2.061922 0.434659
v -1.008945 1.946237 0.404390
v -0.459482 2.061922 1.074182
v -0.427485 1.946237 0.999379
v 0.434658 2.061922 1.084464
v 0.404390 1.946237 1.008946
v 1.074182 2.061922 0.459483
v 0.999379 1.946237 0.427486
v 0.578948 4.614618 -0.578948
v 0.499205 4.524189 -0.499204
v -0.000000 4.614618 -0.818756
v -0.000000 4.524189 -0.705981
v -0.578948 4.614618 -0.578947
v -0.499205 4.524189 -0.499204
v -0.818757 4.614618 0.000001
v -0.705982 4.524189 0.000001
v -0.578948 4.614618 0.578949
v -0.499205 4.524189 0.499206
v 0.000000 4.614618 0.818758
v 0.000000 4.524189 0.705983
v 0.578948 4.614618 0.578949
v 0.499205 4.524189 0.499206
v 0.818757 4.614618 0.000001
v 0.705982 4.524189 0.000001
v 0.014551 1.130793 -1.454527
v 0.013488 1.013617 -1.358990
v -1.018861 1.130793 -1.039888
v -0.952058 1.013617 -0.971582
v -1.456399 1.130793 -0.015962
v -1.360863 1.013616 -0.014899
v -1.041761 1.130792 1.017450
v -0.973455 1.013616 0.950647
v -0.017835 1.130792 1.454988
v -0.016772 1.013616 1.359452
v 1.015577 1.130792 1.040350
v 0.948774 1.013616 0.972044
v 1.453116 1.130793 0.016424
v 1.357579 1.013616 0.015361
v 1.038477 1.130793 -1.016988
v 0.970171 1.013617 -0.950185
v 0.380037 3.568110 -0.947619
v 0.341612 3.468425 -0.851807
v -0.401341 3.568110 -0.938795
v -0.360763 3.468425 -0.843875
v -0.947620 3.568110 -0.380037
v -0.851808 3.468425 -0.341612
v -0.938795 3.568110 0.401342
v -0.843876 3.468425 0.360763
v -0.380037 3.568110 0.947621
v -0.341612 3.468425 0.851809
v 0.401341 3.568110 0.938796
v 0.360763 3.468425 0.843876
v 0.947620 3.568110 0.380038
v 0.851808 3.468425 0.341613
v 0.938796 3.568110 -0.401341
v 0.843876 3.468425 -0.360762
vt 0.317104 0.157440
vt 0.336493 0.158589
vt 0.330965 0.163919
vt 0.332858 0.146029
vt 0.351273 0.148680
vt 0.349080 0.164588
vt 0.344434 0.158428
vt 0.360037 0.176920
vt 0.348484 0.172875
vt 0.343478 0.179443
vt 0.328996 0.189252
vt 0.334708 0.178040
vt 0.317170 0.175971
vt 0.328522 0.172036
vt 0.339840 0.167708
vt 0.339653 0.167346
vt 0.338443 0.169427
vt 0.337545 0.168316
vt 0.339285 0.167154
vt 0.339938 0.169597
vt 0.338893 0.167312
vt 0.341006 0.168539
vt 0.338748 0.167701
vt 0.341029 0.167098
vt 0.338918 0.168073
vt 0.340168 0.165911
vt 0.339314 0.168231
vt 0.338697 0.165915
vt 0.339694 0.168075
vt 0.337714 0.166925
vt 0.360037 0.160865
vt 0.347236 0.189299
vt 0.479690 0.086700
vt 0.481581 0.096273
vt 0.476149 0.096273
vt 0.474815 0.086700
vt 0.463002 0.096273
vt 0.462997 0.086700
vt 0.474774 0.086700
vt 0.476109 0.096273
vt 0.462942 0.086700
vt 0.462942 0.096273
vt 0.451129 0.086700
vt 0.449790 0.096273
vt 0.446249 0.086700
vt 0.444358 0.096273
vt 0.451164 0.086700
vt 0.449830 0.096273
vt 0.481987 0.069823
vt 0.483412 0.080566
vt 0.471243 0.080566
vt 0.470666 0.069823
vt 0.454224 0.080566
vt 0.454836 0.069823
vt 0.482173 0.069823
vt 0.483607 0.080566
vt 0.471103 0.069823
vt 0.471714 0.080566
vt 0.455272 0.069823
vt 0.454696 0.080566
vt 0.443952 0.069823
vt 0.442527 0.080566
vt 0.443765 0.069823
vt 0.442331 0.080566
vt 0.476405 0.141127
vt 0.478551 0.149530
vt 0.473987 0.149530
vt 0.472472 0.141127
vt 0.462972 0.149530
vt 0.462972 0.141127
vt 0.472472 0.141127
vt 0.473987 0.149530
vt 0.462972 0.141127
vt 0.462972 0.149530
vt 0.453472 0.141127
vt 0.451952 0.149530
vt 0.449534 0.141127
vt 0.447387 0.149530
vt 0.453472 0.141127
vt 0.451952 0.149530
vt 0.480362 0.062496
vt 0.481586 0.072735
vt 0.489004 0.072730
vt 0.487294 0.062496
vt 0.481175 0.072730
vt 0.479981 0.062496
vt 0.463243 0.062496
vt 0.463258 0.072730
vt 0.445958 0.062496
vt 0.444764 0.072735
vt 0.438644 0.062496
vt 0.436934 0.072735
vt 0.445577 0.062496
vt 0.444353 0.072735
vt 0.462701 0.062496
vt 0.462681 0.072730
vt 0.475883 0.122361
vt 0.477689 0.131723
vt 0.477854 0.131723
vt 0.476033 0.122361
vt 0.467456 0.131723
vt 0.466684 0.122361
vt 0.466323 0.122361
vt 0.467055 0.131723
vt 0.452955 0.122361
vt 0.452183 0.131723
vt 0.443610 0.122361
vt 0.441784 0.131723
vt 0.443761 0.122361
vt 0.441955 0.131723
vt 0.453321 0.122361
vt 0.452589 0.131723
vt 0.462972 0.267652
vt 0.462972 0.113238
vt 0.462972 0.214085
vt 0.462972 0.091232
vt 0.462972 0.356101
vt 0.462972 0.171822
vt 0.462972 0.263237
vt 0.462972 0.093174
vt 0.459822 0.332231
vt 0.459822 0.153419
vn 0.2620 0.3519 -0.8986
vn -0.3748 0.3277 -0.8673
vn -0.7968 0.3914 -0.4602
vn -0.7833 0.3932 0.4814
vn -0.3566 0.3292 0.8743
vn 0.3044 0.3949 0.8669
vn 0.8712 0.3915 0.2962
vn 0.8916 0.3815 -0.2441
vn 0.9232 0.0374 0.3824
vn 0.3824 0.0374 0.9232
vn -0.3824 0.0374 0.9232
vn -0.9232 0.0374 0.3824
vn -0.9232 0.0374 -0.3824
vn -0.3824 0.0374 -0.9232
vn 0.3824 0.0374 -0.9232
vn 0.9232 0.0374 -0.3824
vn 0.3666 0.1619 0.9162
vn -0.3920 0.1501 0.9076
vn -0.8787 0.1694 0.4464
vn -0.8863 0.1807 -0.4265
vn -0.3523 0.1270 -0.9272
vn 0.3306 0.1385 -0.9336
vn 0.9214 0.1703 -0.3493
vn 0.9162 0.1619 0.3666
vn 0.8384 0.4335 0.3303
vn 0.8816 0.3962 -0.2564
vn 0.2529 0.3419 -0.9051
vn -0.3584 0.3088 -0.8810
vn -0.9257 0.2289 -0.3011
vn -0.9147 0.2262 0.3348
vn -0.4032 0.4087 0.8188
vn 0.3213 0.4229 0.8473
vn 0.2848 -0.6646 -0.6908
vn 0.6899 -0.6646 -0.2870
vn -0.2870 -0.6646 -0.6899
vn -0.6908 -0.6646 -0.2848
vn -0.6899 -0.6646 0.2870
vn -0.2848 -0.6646 0.6908
vn 0.2870 -0.6646 0.6899
vn 0.6908 -0.6646 0.2848
vn 0.5997 -0.5448 -0.5861
vn 0.8385 -0.5448 0.0096
vn 0.0096 -0.5448 -0.8385
vn -0.5861 -0.5448 -0.5997
vn -0.8385 -0.5448 -0.0096
vn -0.5997 -0.5448 0.5861
vn -0.0096 -0.5448 0.8385
vn 0.5861 -0.5448 0.5997
vn 0.2508 -0.7552 -0.6056
vn 0.6056 -0.7552 -0.2508
vn -0.2508 -0.7552 -0.6056
vn -0.6056 -0.7552 -0.2508
vn -0.6056 -0.7552 0.2508
vn -0.2508 -0.7552 0.6056
vn 0.2508 -0.7552 0.6056
vn 0.6056 -0.7552 0.2508
vn -0.2974 -0.6017 -0.7413
vn 0.3139 -0.6017 -0.7345
vn -0.7345 -0.6017 -0.3139
vn -0.7413 -0.6017 0.2974
vn -0.3139 -0.6017 0.7345
vn 0.2974 -0.6017 0.7413
vn 0.7345 -0.6017 0.3139
vn 0.7413 -0.6017 -0.2974
vn -0.0082 -0.6913 -0.7225
vn 0.5051 -0.6913 -0.5167
vn -0.5167 -0.6913 -0.5051
vn -0.7225 -0.6913 0.0082
vn -0.5051 -0.6913 0.5167
vn 0.0082 -0.6913 0.7225
vn 0.5167 -0.6913 0.5051
vn 0.7225 -0.6913 -0.0082
vn 0.3386 0.4595 -0.8211
vn -0.3412 0.4595 -0.8200
vn -0.8211 0.4595 -0.3386
vn -0.8200 0.4595 0.3412
vn -0.3386 0.4595 0.8211
vn 0.3412 0.4595 0.8200
vn 0.8211 0.4595 0.3386
vn 0.8200 0.4595 -0.3412
vn -0.1266 -0.9433 0.3069
vn 0.1275 -0.9433 0.3065
vn 0.3069 -0.9433 0.1266
vn 0.3065 -0.9433 -0.1275
vn 0.1266 -0.9433 -0.3069
vn -0.1275 -0.9433 -0.3065
vn -0.3069 -0.9433 -0.1266
vn -0.3065 -0.9433 0.1275
vn 0.5719 0.6004 -0.5589
vn 0.0092 0.6004 -0.7996
vn -0.5589 0.6004 -0.5719
vn -0.7996 0.6004 -0.0092
vn -0.5719 0.6004 0.5589
vn -0.0092 0.6004 0.7996
vn 0.5589 0.6004 0.5719
vn 0.7996 0.6004 0.0092
vn -0.1600 -0.9747 0.1564
vn -0.0026 -0.9747 0.2237
vn 0.1564 -0.9747 0.1600
vn 0.2237 -0.9747 0.0026
vn 0.1600 -0.9747 -0.1564
vn 0.0026 -0.9747 -0.2237
vn -0.1564 -0.9747 -0.1600
vn -0.2237 -0.9747 -0.0026
vn 0.3623 0.3220 -0.8747
vn -0.3623 0.3220 -0.8747
vn -0.8747 0.3220 -0.3623
vn -0.8747 0.3220 0.3623
vn -0.3623 0.3220 0.8747
vn 0.3623 0.3220 0.8747
vn 0.8747 0.3220 0.3623
vn 0.8747 0.3220 -0.3623
vn -0.1730 -0.8920 0.4176
vn 0.1730 -0.8920 0.4176
vn 0.4176 -0.8920 0.1730
vn 0.4176 -0.8920 -0.1730
vn 0.1730 -0.8920 -0.4176
vn -0.1730 -0.8920 -0.4176
vn -0.4176 -0.8920 -0.1730
vn -0.4176 -0.8920 0.1730
vn -0.3183 0.5191 -0.7932
vn -0.7860 0.5191 -0.3359
vn -0.7932 0.5191 0.3183
vn -0.3359 0.5191 0.7860
vn 0.3183 0.5191 0.7932
vn 0.7860 0.5191 0.3359
vn 0.7932 0.5191 -0.3183
vn 0.3359 0.5191 -0.7860
vn 0.1003 -0.9631 0.2500
vn 0.2477 -0.9631 0.1058
vn 0.2500 -0.9631 -0.1003
vn 0.1058 -0.9631 -0.2477
vn -0.1003 -0.9631 -0.2500
vn -0.2477 -0.9631 -0.1058
vn -0.2500 -0.9631 0.1003
vn -0.1058 -0.9631 0.2477
vn -0.0103 0.4042 -0.9146
vn -0.6540 0.4042 -0.6394
vn -0.9146 0.4042 0.0103
vn -0.6394 0.4042 0.6540
vn 0.0103 0.4042 0.9146
vn 0.6540 0.4042 0.6394
vn 0.9146 0.4042 -0.0103
vn 0.6394 0.4042 -0.6540
vn 0.0041 -0.9317 0.3633
vn 0.2598 -0.9317 0.2540
vn 0.3633 -0.9317 -0.0041
vn 0.2540 -0.9317 -0.2598
vn -0.0041 -0.9317 -0.3633
vn -0.2598 -0.9317 -0.2540
vn -0.3633 -0.9317 0.0041
vn -0.2540 -0.9317 0.2598
usemtl Material.001
s 1
f 7/1/1 36/2/1 37/3/1
f 8/4/2 9/5/2 36/2/2
f 9/5/3 34/6/3 35/7/3
f 34/6/4 11/8/4 33/9/4
f 11/8/5 32/10/5 33/9/5
f 32/10/6 13/11/6 31/12/6
f 13/11/7 14/13/7 38/14/7
f 38/14/8 7/1/8 37/3/8
f 22/15/9 21/16/9 24/17/9 23/18/9
f 21/16/10 20/19/10 25/20/10 24/17/10
f 20/19/11 19/21/11 26/22/11 25/20/11
f 19/21/12 18/23/12 27/24/12 26/22/12
f 18/23/13 17/25/13 28/26/13 27/24/13
f 17/25/14 16/27/14 29/28/14 28/26/14
f 16/27/15 15/29/15 30/30/15 29/28/15
f 15/29/16 22/15/16 23/18/16 30/30/16
f 24/17/17 25/20/17 32/10/17 31/12/17
f 25/20/18 26/22/18 33/9/18 32/10/18
f 26/22/19 27/24/19 34/6/19 33/9/19
f 27/24/20 28/26/20 35/7/20 34/6/20
f 28/26/21 29/28/21 36/2/21 35/7/21
f 29/28/22 30/30/22 37/3/22 36/2/22
f 30/30/23 23/18/23 38/14/23 37/3/23
f 23/18/24 24/17/24 31/12/24 38/14/24
f 13/11/25 38/14/25 31/12/25
f 14/13/26 7/1/26 38/14/26
f 7/1/27 8/4/27 36/2/27
f 36/2/28 9/5/28 35/7/28
f 9/5/29 10/31/29 34/6/29
f 10/31/30 11/8/30 34/6/30
f 12/32/31 32/10/31 11/8/31
f 12/32/32 13/11/32 32/10/32
f 46/33/33 45/34/33 43/35/33 44/36/33
f 57/37/34 58/38/34 44/36/34 43/35/34
f 48/39/35 47/40/35 45/34/35 46/33/35
f 50/41/36 49/42/36 47/40/36 48/39/36
f 52/43/37 51/44/37 49/42/37 50/41/37
f 54/45/38 53/46/38 51/44/38 52/43/38
f 56/47/39 55/48/39 53/46/39 54/45/39
f 58/38/40 57/37/40 55/48/40 56/47/40
f 62/49/41 61/50/41 59/51/41 60/52/41
f 73/53/42 74/54/42 60/52/42 59/51/42
f 64/55/43 63/56/43 61/50/43 62/49/43
f 66/57/44 65/58/44 63/56/44 64/55/44
f 68/59/45 67/60/45 65/58/45 66/57/45
f 70/61/46 69/62/46 67/60/46 68/59/46
f 72/63/47 71/64/47 69/62/47 70/61/47
f 74/54/48 73/53/48 71/64/48 72/63/48
f 78/65/49 77/66/49 75/67/49 76/68/49
f 89/69/50 90/70/50 76/68/50 75/67/50
f 80/71/51 79/72/51 77/66/51 78/65/51
f 82/73/52 81/74/52 79/72/52 80/71/52
f 84/75/53 83/76/53 81/74/53 82/73/53
f 86/77/54 85/78/54 83/76/54 84/75/54
f 88/79/55 87/80/55 85/78/55 86/77/55
f 90/70/56 89/69/56 87/80/56 88/79/56
f 94/81/57 93/82/57 91/83/57 92/84/57
f 105/85/58 106/86/58 92/84/58 91/83/58
f 96/87/59 95/88/59 93/82/59 94/81/59
f 98/89/60 97/90/60 95/88/60 96/87/60
f 100/91/61 99/92/61 97/90/61 98/89/61
f 102/93/62 101/94/62 99/92/62 100/91/62
f 104/95/63 103/96/63 101/94/63 102/93/63
f 106/86/64 105/85/64 103/96/64 104/95/64
f 110/97/65 109/98/65 107/99/65 108/100/65
f 121/101/66 122/102/66 108/100/66 107/99/66
f 112/103/67 111/104/67 109/98/67 110/97/67
f 114/105/68 113/106/68 111/104/68 112/103/68
f 116/107/69 115/108/69 113/106/69 114/105/69
f 118/109/70 117/110/70 115/108/70 116/107/70
f 120/111/71 119/112/71 117/110/71 118/109/71
f 122/102/72 121/101/72 119/112/72 120/111/72
f 43/35/73 45/34/73 1/113/73
f 45/34/74 47/40/74 1/113/74
f 47/40/75 49/42/75 1/113/75
f 49/42/76 51/44/76 1/113/76
f 51/44/77 53/46/77 1/113/77
f 53/46/78 55/48/78 1/113/78
f 55/48/79 57/37/79 1/113/79
f 57/37/80 43/35/80 1/113/80
f 46/33/81 44/36/81 2/114/81
f 48/39/82 46/33/82 2/114/82
f 50/41/83 48/39/83 2/114/83
f 52/43/84 50/41/84 2/114/84
f 54/45/85 52/43/85 2/114/85
f 56/47/86 54/45/86 2/114/86
f 58/38/87 56/47/87 2/114/87
f 44/36/88 58/38/88 2/114/88
f 59/51/89 61/50/89 3/115/89
f 61/50/90 63/56/90 3/115/90
f 63/56/91 65/58/91 3/115/91
f 65/58/92 67/60/92 3/115/92
f 67/60/93 69/62/93 3/115/93
f 69/62/94 71/64/94 3/115/94
f 71/64/95 73/53/95 3/115/95
f 73/53/96 59/51/96 3/115/96
f 62/49/97 60/52/97 4/116/97
f 64/55/98 62/49/98 4/116/98
f 66/57/99 64/55/99 4/116/99
f 68/59/100 66/57/100 4/116/100
f 70/61/101 68/59/101 4/116/101
f 72/63/102 70/61/102 4/116/102
f 74/54/103 72/63/103 4/116/103
f 60/52/104 74/54/104 4/116/104
f 75/67/105 77/66/105 5/117/105
f 77/66/106 79/72/106 5/117/106
f 79/72/107 81/74/107 5/117/107
f 81/74/108 83/76/108 5/117/108
f 83/76/109 85/78/109 5/117/109
f 85/78/110 87/80/110 5/117/110
f 87/80/111 89/69/111 5/117/111
f 89/69/112 75/67/112 5/117/112
f 78/65/113 76/68/113 6/118/113
f 80/71/114 78/65/114 6/118/114
f 82/73/115 80/71/115 6/118/115
f 84/75/116 82/73/116 6/118/116
f 86/77/117 84/75/117 6/118/117
f 88/79/118 86/77/118 6/118/118
f 90/70/119 88/79/119 6/118/119
f 76/68/120 90/70/120 6/118/120
f 91/83/121 93/82/121 39/119/121
f 93/82/122 95/88/122 39/119/122
f 95/88/123 97/90/123 39/119/123
f 97/90/124 99/92/124 39/119/124
f 99/92/125 101/94/125 39/119/125
f 101/94/126 103/96/126 39/119/126
f 103/96/127 105/85/127 39/119/127
f 105/85/128 91/83/128 39/119/128
f 94/81/129 92/84/129 40/120/129
f 96/87/130 94/81/130 40/120/130
f 98/89/131 96/87/131 40/120/131
f 100/91/132 98/89/132 40/120/132
f 102/93/133 100/91/133 40/120/133
f 104/95/134 102/93/134 40/120/134
f 106/86/135 104/95/135 40/120/135
f 92/84/136 106/86/136 40/120/136
f 107/99/137 109/98/137 41/121/137
f 109/98/138 111/104/138 41/121/138
f 111/104/139 113/106/139 41/121/139
f 113/106/140 115/108/140 41/121/140
f 115/108/141 117/110/141 41/121/141
f 117/110/142 119/112/142 41/121/142
f 119/112/143 121/101/143 41/121/143
f 121/101/144 107/99/144 41/121/144
f 110/97/145 108/100/145 42/122/145
f 112/103/146 110/97/146 42/122/146
f 114/105/147 112/103/147 42/122/147
f 116/107/148 114/105/148 42/122/148
f 118/109/149 116/107/149 42/122/149
f 120/111/150 118/109/150 42/122/150
f 122/102/151 120/111/151 42/122/151
f 108/100/152 122/102/152 42/122/152
