# Blender v3.2.0 OBJ File: 'Terrain.blend'
# www.blender.org
mtllib Terrain.mtl
o CurrentPlane.002_Plane.006
v -1.063834 0.012783 1.806019
v 0.113276 -0.134026 2.151029
v 0.419417 -0.096044 1.621915
v 0.919276 0.006610 0.049051
v 1.315119 -0.079815 1.237799
v 1.192223 -0.093634 0.830513
v 1.097306 -0.111198 1.542670
v -1.703701 0.004445 1.727417
v -1.282403 0.008542 1.633742
v -0.551215 0.007056 1.848088
v -1.533665 0.004033 -1.372970
v -1.041055 0.000002 -1.548093
v -2.450444 0.004987 -1.276975
v -1.220275 0.005428 -0.135121
v 0.918321 0.002782 -0.053496
v 1.102967 -0.064027 -1.334325
v 1.306005 -0.177510 -1.109516
v 2.262856 -0.094246 -1.439081
v 2.224882 -0.182349 -1.997949
v 2.257146 -0.066641 -1.742895
v 2.224296 -0.010935 -1.581826
v 2.307894 0.043689 -1.272559
v 2.199698 0.020950 -1.114274
v 2.328696 0.097348 -0.614026
v 1.934817 -0.200825 -1.868030
v 2.180212 -0.168516 -1.561004
v 2.142442 -0.180457 -1.365906
v 1.961050 -0.049978 -1.078164
v 1.943609 -0.140854 -1.105373
v 2.282133 0.064082 -0.936725
v 1.767627 0.101477 -0.551378
v 2.149240 0.003901 -0.368659
v 2.242870 0.002823 0.007027
v 1.849273 0.057786 -0.852336
v 1.665399 0.047647 -0.449094
v 1.785630 0.006448 -0.387416
v 1.447630 -0.201650 -2.040557
v 1.538176 -0.249537 -1.793445
v 1.597192 -0.198664 -1.288858
v 1.540196 -0.103759 -1.090191
v 1.752749 -0.118025 -1.061775
v 1.256282 -0.161328 -1.976071
v 1.342272 -0.217434 -1.412476
v 1.148409 -0.117788 -0.978276
v 1.135908 -0.129848 -1.077930
v 1.227886 -0.056750 -0.980358
v 1.250875 0.055708 -0.774434
v 1.094870 0.018136 -0.289984
v 1.172412 -0.040132 -1.705362
v 0.995588 -0.061198 -1.009575
v 1.084380 -0.085035 -0.899357
v 1.027158 -0.037692 -0.762038
v 1.034310 0.020973 -0.082724
v 0.850975 0.002485 -1.941168
v 0.950505 -0.078544 -0.851546
v 0.862318 0.015612 -0.789233
v 0.893145 -0.099721 -0.761783
v 0.811176 -0.067208 -0.604350
v 0.936381 -0.100622 -0.547212
v 0.997252 -0.037695 -0.467410
v 0.741263 0.002887 -0.421124
v 0.972289 -0.045005 -0.313038
v 0.562850 0.001860 -1.557238
v -0.032173 0.015417 -1.622181
v 0.318775 0.009408 -1.855877
v 1.592154 -0.159055 -2.153744
v 1.906302 -0.148642 -2.146944
v -0.301096 0.007146 -1.818577
v -0.555995 0.009177 -1.653910
v -1.239490 0.003897 -0.728459
v -1.208519 0.004067 -1.292106
v -1.775612 0.000561 -1.827731
v -1.995160 -0.022517 -0.598867
v -1.876458 0.002090 -0.233531
v -2.364587 0.009063 -0.483555
v -2.075346 0.002244 -0.474018
v -2.345213 0.009512 -0.196179
v -2.372753 0.004187 -1.818066
v -2.479547 0.009897 -1.637369
v -2.595099 0.003672 -1.006856
v -2.323978 0.005512 -0.679360
v -0.218426 -0.009433 1.843845
v -0.793374 -0.013409 0.916421
v -0.480104 -0.007591 2.145474
v -0.682450 0.009520 2.150205
v -0.875854 0.006051 1.643030
v -2.278056 0.003754 1.794107
v -2.336084 0.006215 0.699804
v -0.773839 0.007699 -0.068168
v -2.351329 0.011502 -0.019788
v 2.210690 0.031002 0.935200
v 2.262353 -0.002983 1.670840
v 2.040694 0.005811 0.522892
v 2.202564 0.007606 0.338191
v 2.072966 0.018765 0.759040
v 2.186695 0.001828 1.446528
v 1.806782 0.044180 0.684288
v 1.970791 0.011065 0.626216
v 1.568550 0.011709 0.454031
v 1.694572 0.001312 0.501763
v 1.499388 0.001878 0.486248
v 1.405661 -0.002352 1.792071
v 1.312316 0.003704 0.344439
v 1.319697 -0.003137 1.248853
v 1.141312 -0.259230 2.150545
v 1.358125 -0.227354 1.972417
v 1.044406 -0.091151 0.582136
v 1.086544 0.039080 0.515620
v 1.012668 -0.096412 0.766485
v 1.025413 -0.117544 0.928017
v 0.975663 -0.004348 1.480810
v 1.039245 -0.094393 1.159253
v 0.988223 -0.083084 1.412714
v 1.092935 -0.116575 1.683990
v 1.162860 -0.002909 1.613359
v 0.764500 -0.000679 0.240111
v 0.979598 -0.039438 0.317668
v 0.890566 -0.057729 0.443244
v 0.940597 -0.001406 0.723664
v 0.932781 -0.120525 1.671297
v 0.413444 -0.212443 1.976212
v 0.243870 -0.002689 1.575082
v 0.542207 -0.158664 2.148076
v 0.181084 -0.188114 1.851303
v -0.224469 -0.128546 2.144242
v 1.156324 0.000045 0.106416
v 0.857612 -0.087556 -0.182461
v 0.966028 -0.057199 0.172756
v 1.373016 0.005423 -0.172933
v 1.201314 0.002366 -0.185905
v 1.456225 -0.001151 -0.144882
v 0.954335 -0.079700 -0.430125
v 0.836459 -0.090802 -0.575781
v 0.775655 -0.062187 -0.310740
v 0.810611 -0.068825 -0.402353
v 0.946902 -0.057723 -0.256697
v 1.009318 -0.093782 0.674311
v 0.875217 -0.084598 0.308000
v 0.959831 -0.061917 0.380456
v 0.829980 -0.029204 0.341678
v 0.973716 -0.065294 0.449902
v 0.954064 -0.077070 0.604864
v 0.852583 -0.092893 -0.013800
v 0.906720 -0.033177 0.059630
v 0.974697 -0.042349 0.245212
v 0.829810 -0.088658 0.235436
v 0.776220 -0.032161 -0.512737
v 0.835894 -0.092418 -0.373784
v 0.933184 -0.033830 -0.109031
v 0.950714 -0.074440 0.512690
v 0.787273 -0.055393 0.019878
v 0.962751 -0.056488 -0.200356
v 0.999642 -0.104120 -0.750539
v 1.725515 0.027047 -0.418255
v 1.498458 0.031624 -0.293262
v 1.367092 0.000333 -0.044662
v 1.380135 0.032892 -0.369539
v 1.111539 0.008258 -0.187183
v 1.134825 0.007287 -0.027245
v 1.740101 0.003880 0.057173
v 1.425448 0.000678 0.304090
v 1.303977 0.001473 -0.071616
v 1.185323 0.008632 -0.233694
v 1.280581 0.002914 -0.183878
v 1.138441 0.004073 -0.139762
v 1.594183 0.006004 -0.248126
v 1.409149 0.002314 -0.141167
v 1.546320 0.018814 -0.270694
v 1.214411 0.002911 -0.105624
v 1.334070 0.015612 -0.270064
v 1.509815 0.003341 0.027982
v -2.158988 0.003229 -0.754159
v -1.976267 0.002794 -1.045774
v -1.996118 0.002644 -1.371853
v -1.542090 0.000903 -0.601366
v -1.535255 0.003433 -1.032124
v -1.850091 -0.022533 -0.598187
v -1.533951 0.002610 -1.276225
v -1.084029 -0.009712 0.875609
v -1.233404 0.007262 0.157746
vt 0.516158 0.328762
vt 0.488686 0.371374
vt 0.446449 0.309666
vt 0.546506 0.304672
vt 0.543372 0.337982
vt 0.523259 0.369986
vt 0.606462 0.314876
vt 0.582776 0.351296
vt 0.602093 0.262172
vt 0.585028 0.256695
vt 0.540481 0.200464
vt 0.904542 0.888340
vt 0.886745 0.983704
vt 0.808979 0.852242
vt 0.580823 0.177437
vt 0.562572 0.132141
vt 0.716354 0.636372
vt 0.750321 0.686014
vt 0.738752 0.692868
vt 0.563272 0.094126
vt 0.506723 0.159845
vt 0.594795 0.108660
vt 0.712335 0.903902
vt 0.697868 0.754382
vt 0.813961 0.945528
vt 0.602652 0.923916
vt 0.637137 0.827022
vt 0.662472 0.945954
vt 0.628630 0.974583
vt 0.570906 0.055997
vt 0.510252 0.094559
vt 0.583690 0.090535
vt 0.303830 0.920672
vt 0.321233 0.921297
vt 0.316655 0.972339
vt 0.691019 0.690900
vt 0.671072 0.679294
vt 0.673800 0.648607
vt 0.291146 0.953390
vt 0.284217 0.921390
vt 0.597447 0.071374
vt 0.601673 0.041593
vt 0.235767 0.819672
vt 0.250559 0.846751
vt 0.264266 0.873754
vt 0.258187 0.941020
vt 0.287369 0.855058
vt 0.269976 0.862202
vt 0.306189 0.826545
vt 0.293760 0.772672
vt 0.290329 0.815966
vt 0.264915 0.798515
vt 0.257871 0.809305
vt 0.249510 0.779043
vt 0.262897 0.730599
vt 0.285660 0.753891
vt 0.627406 0.779290
vt 0.479087 0.726838
vt 0.376028 0.262001
vt 0.432478 0.377295
vt 0.390040 0.323982
vt 0.428733 0.809118
vt 0.490882 0.930876
vt 0.443340 0.915003
vt 0.428310 0.881418
vt 0.434325 0.733261
vt 0.072290 0.680702
vt 0.091173 0.704159
vt 0.070960 0.742118
vt 0.041155 0.731864
vt 0.328679 0.621011
vt 0.434836 0.695708
vt 0.368538 0.742704
vt 0.322692 0.713044
vt 0.055923 0.936571
vt 0.045617 0.860510
vt 0.112667 0.796985
vt 0.123053 0.865588
vt 0.080754 0.970778
vt 0.546178 0.484644
vt 0.590364 0.521366
vt 0.483264 0.600694
vt 0.513075 0.482581
vt 0.159581 0.026680
vt 0.168097 0.099809
vt 0.090908 0.097604
vt 0.479557 0.507268
vt 0.454142 0.604519
vt 0.397840 0.492515
vt 0.439115 0.506503
vt 0.341206 0.481224
vt 0.903672 0.587031
vt 0.904542 0.687278
vt 0.817905 0.528139
vt 0.710659 0.465626
vt 0.723255 0.383929
vt 0.891452 0.496437
vt 0.767137 0.582251
vt 0.794747 0.539610
vt 0.293838 0.469968
vt 0.279581 0.358506
vt 0.303785 0.229790
vt 0.939638 0.032817
vt 0.901633 0.300081
vt 0.791509 0.104046
vt 0.852430 0.026171
vt 0.320943 0.232593
vt 0.261659 0.442006
vt 0.251463 0.412976
vt 0.248603 0.381696
vt 0.251248 0.331706
vt 0.221238 0.398331
vt 0.248118 0.258491
vt 0.236981 0.163502
vt 0.220979 0.153270
vt 0.261614 0.084456
vt 0.293972 0.108793
vt 0.262049 0.130591
vt 0.236146 0.502928
vt 0.242465 0.554494
vt 0.224666 0.544115
vt 0.267752 0.569195
vt 0.255924 0.522813
vt 0.265122 0.544674
vt 0.242689 0.438928
vt 0.246511 0.472260
vt 0.303785 0.229790
vt 0.293972 0.108793
vt 0.331454 0.172400
vt 0.062923 0.381429
vt 0.137289 0.257105
vt 0.180520 0.431364
vt 0.138325 0.484695
vt 0.654297 0.633705
vt 0.662472 0.536952
vt 0.052559 0.258686
vt 0.107226 0.203578
vt 0.633806 0.694759
vt 0.817398 0.797103
vt 0.817535 0.662584
vt 0.709917 0.676145
vt 0.237118 0.659309
vt 0.255936 0.669410
vt 0.285219 0.641682
vt 0.288595 0.678063
vt 0.273696 0.639616
vt 0.268225 0.594451
vt 0.225874 0.088186
vt 0.881305 0.798347
vt 0.444142 0.225278
vt 0.591223 0.219652
vt 0.393053 0.224448
vt 0.396478 0.180210
vt 0.440043 0.125820
vt 0.745987 0.784683
vt 0.794113 0.814998
vt 0.606462 0.007509
vt 0.576522 0.960957
vt 0.543117 0.929338
vt 0.515173 0.953191
vt 0.010962 0.808892
vt 0.026005 0.692520
vt 0.322203 0.735652
vt 0.177730 0.953465
vt 0.376076 0.002910
vt 0.421591 0.077875
vt 0.359292 0.073992
vt 0.461888 0.485489
vt 0.878806 0.528447
vt 0.736640 0.135225
vt 0.755339 0.085417
vt 0.747929 0.567761
vt 0.939638 0.428657
vt 0.255208 0.495216
vt 0.303078 0.230470
vt 0.236981 0.163502
vt 0.199866 0.081341
vt 0.225874 0.088186
vt 0.065443 0.420497
vt 0.072759 0.510693
vt 0.321233 0.033705
vt 0.212778 0.582660
vt 0.009820 0.389512
vt 0.180520 0.283220
vt 0.031260 0.213183
vt 0.175489 0.179927
vt 0.776731 0.666937
vt 0.786346 0.751735
vt 0.764092 0.717917
vt 0.740010 0.753416
vt 0.714818 0.739185
vt 0.718579 0.725093
vt 0.732443 0.726140
vt 0.338069 0.000080
vt 0.710076 0.200460
vt 0.722416 0.701305
vt 0.708509 0.710052
vt 0.702848 0.723751
vt 0.777253 0.758111
vt 0.805756 0.806036
vt 0.281571 0.700111
vt 0.238361 0.580746
vt 0.287054 0.733665
vt 0.768224 0.764520
vt 0.748889 0.724837
vt 0.755864 0.715963
vt 0.193810 0.830700
vt 0.197893 0.850855
vt 0.114361 0.699470
vt 0.164571 0.690267
vt 0.183420 0.779869
vt 0.095598 0.623963
vt 0.197893 0.582898
vn -0.4592 0.8436 0.2783
vn -0.6083 0.7907 -0.0694
vn -0.8647 0.2956 0.4061
vn -0.6699 0.6465 -0.3650
vn -0.2340 0.3198 -0.9181
vn -0.0602 0.9790 -0.1948
vn -0.0041 0.9948 -0.1020
vn -0.2291 0.8511 -0.4723
vn 0.0108 0.9998 0.0170
vn 0.2518 0.9629 -0.0967
vn -0.0091 0.9912 -0.1317
vn -0.1527 0.6741 -0.7226
vn -0.1064 0.9934 0.0428
vn -0.0229 0.9885 -0.1497
vn 0.0658 0.9978 -0.0120
vn 0.4944 0.8551 0.1560
vn 0.2416 0.9593 -0.1464
vn -0.8503 0.2745 -0.4490
vn -0.1635 0.9859 -0.0353
vn 0.0761 0.9748 0.2098
vn 0.0448 0.9719 -0.2310
vn 0.9420 0.1190 0.3139
vn 0.2456 0.9689 0.0284
vn 0.8652 0.3226 0.3839
vn -0.9254 0.3671 -0.0939
vn -0.7217 0.6901 -0.0532
vn -0.8050 0.5700 0.1646
vn 0.4348 0.9004 -0.0163
vn -0.3087 0.9511 0.0109
vn 0.0122 0.9992 0.0385
vn -0.0093 0.9827 0.1848
vn -0.0121 0.9999 -0.0077
vn -0.0047 1.0000 -0.0024
vn 0.0906 0.9956 -0.0236
vn 0.0030 1.0000 -0.0030
vn 0.0113 0.9999 0.0001
vn 0.0089 0.9999 -0.0098
vn 0.4029 0.8480 0.3444
vn 0.0129 0.9996 -0.0253
vn 0.0087 0.9999 -0.0123
vn 0.0097 0.9997 0.0216
vn -0.0009 1.0000 0.0023
vn -0.0177 0.9997 -0.0166
vn 0.0036 0.9998 0.0202
vn 0.1658 0.9592 -0.2288
vn -0.9543 -0.0710 0.2904
vn -0.0203 0.9978 0.0639
vn -0.0085 0.9999 0.0062
vn -0.9527 0.0131 0.3037
vn -0.0219 0.9995 0.0247
vn 0.7929 0.6092 0.0171
vn 0.8787 0.4670 -0.0993
vn 0.8309 0.5563 0.0085
vn -0.8535 0.5210 -0.0066
vn 0.6879 0.6930 -0.2157
vn -0.4024 0.9113 0.0876
vn 0.8134 0.5280 -0.2441
vn 0.1677 0.9842 0.0570
vn 0.9782 -0.0225 0.2065
vn 0.0163 0.9623 0.2714
vn -0.0044 1.0000 -0.0021
vn -0.0107 0.9500 0.3119
vn -0.0016 0.9999 0.0150
vn 0.1217 0.9920 -0.0332
vn 0.0027 1.0000 0.0061
vn 0.0292 0.9954 0.0913
vn 0.5139 0.8568 0.0424
vn -0.8908 0.3561 0.2822
vn 0.0669 0.9853 0.1570
vn -0.2267 0.8974 -0.3785
vn -0.1653 0.9858 0.0283
vn -0.4808 0.7347 -0.4786
vn -0.6768 0.6463 -0.3523
vn 0.0069 1.0000 0.0011
vn -0.0787 0.9957 -0.0496
vn -0.1757 0.3132 -0.9333
vn -0.0834 0.9694 0.2309
vn -0.0261 0.9949 -0.0973
vn 0.1146 0.9088 -0.4012
vn 0.0311 0.9350 -0.3533
vn 0.2579 0.9638 0.0675
vn 0.7628 0.6445 -0.0522
vn 0.5677 0.8097 0.1488
vn -0.4203 0.5220 -0.7422
vn 0.1094 0.8304 0.5464
vn 0.6287 0.7596 0.1666
vn 0.7547 0.6089 0.2443
vn -0.4792 0.6021 -0.6386
vn 0.7558 0.3358 0.5622
vn 0.7864 0.5483 0.2845
vn 0.5179 0.8217 0.2379
vn 0.3399 0.9400 -0.0313
vn 0.0248 0.9995 -0.0184
vn -0.0055 1.0000 0.0023
vn -0.0115 0.9999 -0.0069
vn 0.0028 1.0000 -0.0002
vn 0.0240 0.9996 -0.0132
vn 0.0150 0.9998 -0.0108
vn 0.0060 1.0000 -0.0016
vn 0.3774 0.8582 0.3479
vn 0.0499 0.9981 0.0372
vn 0.0068 0.9996 -0.0274
vn -0.0129 0.9999 -0.0016
vn 0.0992 0.9950 -0.0149
vn -0.0343 0.9994 0.0071
vn -0.0014 1.0000 -0.0012
vn -0.0056 1.0000 -0.0006
vn -0.7360 0.6073 0.2991
vn -0.7539 0.4755 0.4534
vn -0.0632 0.9889 0.1344
vn -0.1374 0.9905 0.0078
vn -0.0246 0.9949 -0.0981
vn -0.0379 0.9979 -0.0522
vn 0.0719 0.9856 0.1528
vn -0.7122 0.6314 -0.3068
vn -0.8130 0.1304 -0.5674
vn -0.0276 0.9989 0.0372
vn -0.4487 0.6147 0.6487
vn -0.4492 0.6543 0.6083
vn 0.7064 0.6612 -0.2527
vn 0.0545 0.9850 0.1635
vn -0.0092 0.8546 0.5192
vn -0.0543 0.9144 0.4012
vn 0.1535 0.9045 -0.3980
vn 0.3039 0.7576 0.5777
vn 0.0226 0.9261 -0.3766
vn -0.0377 0.9992 -0.0143
vn -0.8556 0.1777 0.4863
vn 0.0044 1.0000 0.0052
vn -0.9654 0.0002 0.2609
vn -0.0446 0.9868 -0.1554
vn 0.1040 0.5953 0.7968
vn 0.0518 0.9414 -0.3334
vn -0.9361 0.2263 -0.2692
vn -0.0121 0.9905 0.1368
vn 0.0849 0.9960 0.0288
vn -0.1507 0.9873 0.0493
vn 0.0966 0.9950 -0.0253
vn 0.0641 0.9947 0.0803
vn 0.1712 0.9530 0.2500
vn -0.5847 0.8112 0.0082
vn -0.6672 0.7371 -0.1075
vn -0.9745 -0.1646 -0.1523
vn -0.5099 0.8483 0.1432
vn 0.8900 0.4548 -0.0328
vn 0.7006 0.7055 0.1068
vn 0.7178 0.6962 0.0076
vn 0.0228 0.9996 -0.0149
vn 0.7995 0.5970 -0.0656
vn 0.2690 0.9630 0.0177
vn 0.0823 0.9916 0.0996
vn 0.2476 0.9687 0.0186
vn -0.1060 0.9775 -0.1822
vn 0.0642 0.9717 -0.2274
vn -0.4543 0.8819 -0.1264
vn 0.6929 0.6287 -0.3529
vn -0.1950 0.9785 0.0673
vn -0.0208 0.9980 -0.0593
vn -0.2723 0.9531 -0.1324
vn 0.6775 0.7355 0.0078
vn -0.2741 0.9601 0.0561
vn -0.3184 0.8908 -0.3241
vn 0.1640 0.9507 0.2631
vn 0.0459 0.9756 0.2149
vn 0.1181 0.9642 0.2376
vn 0.1587 0.9873 -0.0029
vn 0.0501 0.9949 0.0875
vn 0.0408 0.9989 0.0247
vn -0.0095 0.9998 0.0148
vn 0.0058 1.0000 -0.0077
vn -0.0652 0.9894 0.1299
vn -0.0475 0.9948 0.0902
vn -0.0038 0.9853 0.1705
vn -0.0092 1.0000 0.0005
vn -0.0052 1.0000 0.0063
vn -0.0005 1.0000 0.0072
vn 0.0323 0.9976 0.0609
vn 0.0078 0.9997 0.0239
vn 0.0776 0.9955 0.0542
vn -0.0030 1.0000 -0.0024
vn -0.0326 0.9988 0.0361
vn -0.0005 1.0000 -0.0017
vn -0.0252 0.9993 -0.0261
vn -0.0041 1.0000 -0.0064
usemtl Material.003
s off
f 26/1/1 20/2/1 25/3/1
f 27/4/2 18/5/2 26/1/2
f 21/6/3 26/1/3 18/5/3
f 23/7/4 22/8/4 27/4/4
f 28/9/5 23/7/5 29/10/5
f 27/4/6 39/11/6 29/10/6
f 24/12/7 30/13/7 31/14/7
f 40/15/8 39/11/8 17/16/8
f 126/17/9 156/18/9 162/19/9
f 45/20/10 17/16/10 43/21/10
f 17/16/11 39/11/11 43/21/11
f 46/22/12 40/15/12 17/16/12
f 31/14/13 47/23/13 48/24/13
f 34/25/14 47/23/14 31/14/14
f 63/26/15 56/27/15 49/28/15 54/29/15
f 50/30/16 45/20/16 16/31/16
f 44/32/17 17/16/17 45/20/17
f 153/33/18 52/34/18 51/35/18
f 53/36/19 15/37/19 4/38/19
f 153/33/20 51/35/20 55/39/20 57/40/20
f 51/41/21 44/32/21 45/20/21 55/42/21
f 61/43/22 147/44/22 58/45/22 56/46/22
f 59/47/23 57/40/23 58/45/23 133/48/23
f 58/45/24 57/40/24 56/46/24
f 60/49/25 52/34/25 153/33/25
f 62/50/26 60/49/26 59/47/26 132/51/26
f 59/47/27 60/49/27 57/40/27
f 148/52/28 135/53/28 134/54/28 127/55/28
f 127/55/29 136/56/29 148/52/29
f 61/57/30 56/27/30 89/58/30
f 66/59/31 25/3/31 19/60/31 67/61/31
f 70/62/32 69/63/32 12/64/32 71/65/32
f 89/58/33 70/62/33 14/66/33
f 76/67/34 73/68/34 172/69/34 81/70/34
f 88/71/35 180/72/35 14/66/35 74/73/35 90/74/35
f 79/75/36 13/76/36 173/77/36 174/78/36 78/79/36
f 82/80/37 122/81/37 83/82/37 10/83/37
f 84/84/38 125/85/38 82/86/38
f 10/83/39 83/82/39 86/87/39
f 83/82/40 179/88/40 88/71/40 8/89/40 9/90/40
f 83/82/41 89/58/41 180/72/41 179/88/41
f 8/89/42 88/71/42 87/91/42
f 94/92/43 33/93/43 100/94/43
f 92/95/44 96/96/44 102/97/44
f 100/94/45 161/98/45 126/17/45 99/99/45
f 108/100/46 6/101/46 5/102/46
f 96/96/47 108/103/47 104/104/47
f 108/103/48 96/96/48 97/105/48 101/106/48
f 104/107/49 108/100/49 5/102/49
f 6/101/50 107/108/50 137/109/50 109/110/50
f 110/111/51 109/110/51 119/112/51
f 112/113/52 110/111/52 119/112/52
f 113/114/53 112/113/53 119/112/53 111/115/53
f 114/116/54 115/117/54 7/118/54
f 118/119/55 138/120/55 140/121/55
f 145/122/56 138/120/56 139/123/56 117/124/56
f 118/119/57 119/112/57 109/110/57 142/125/57
f 150/126/58 142/125/58 137/109/58 107/108/58
f 120/127/59 113/128/59 111/129/59
f 120/130/60 121/131/60 105/132/60 106/133/60
f 119/134/61 83/82/61 122/81/61 111/135/61
f 121/131/62 120/130/62 3/136/62 124/137/62
f 83/82/63 119/134/63 116/138/63 89/58/63
f 121/131/64 124/137/64 125/85/64
f 33/93/65 36/139/65 160/140/65 100/94/65
f 126/17/66 159/141/66 53/36/66 4/38/66
f 127/55/67 151/142/67 143/143/67
f 4/144/68 15/145/68 144/146/68 128/147/68
f 120/148/69 7/118/69 113/114/69
f 25/3/70 20/2/70 19/60/70
f 26/1/71 25/3/71 27/4/71
f 27/4/72 29/10/72 23/7/72
f 27/4/73 22/8/73 18/5/73
f 33/93/74 32/149/74 36/139/74
f 38/150/75 39/11/75 27/4/75 25/3/75
f 41/151/76 28/9/76 29/10/76
f 25/3/77 66/59/77 37/152/77 38/150/77
f 43/21/78 39/11/78 38/150/78
f 41/151/79 39/11/79 40/15/79
f 41/151/80 29/10/80 39/11/80
f 37/152/81 42/153/81 43/21/81 38/150/81
f 49/154/82 43/21/82 42/153/82
f 49/154/83 16/31/83 45/20/83 43/21/83
f 44/32/84 46/22/84 17/16/84
f 48/24/85 157/155/85 35/156/85 31/14/85
f 16/31/86 49/154/86 56/157/86
f 50/30/87 16/31/87 56/157/87
f 51/41/88 46/22/88 44/32/88
f 56/46/89 57/40/89 55/39/89
f 56/157/90 55/42/90 50/30/90
f 50/30/91 55/42/91 45/20/91
f 134/54/92 151/142/92 127/55/92
f 56/27/93 63/26/93 65/158/93 64/159/93
f 64/159/94 70/62/94 89/58/94 56/27/94
f 70/62/95 64/159/95 68/160/95 69/63/95
f 80/161/96 81/70/96 172/69/96 173/77/96 13/76/96
f 76/67/97 81/70/97 75/162/97
f 90/74/98 74/73/98 77/163/98
f 78/79/99 174/78/99 72/164/99
f 124/137/100 82/86/100 125/85/100
f 84/165/101 82/166/101 10/167/101
f 1/168/102 86/87/102 83/82/102 9/90/102
f 93/169/103 94/92/103 100/94/103
f 97/105/104 96/96/104 95/170/104 98/171/104
f 99/99/105 126/17/105 103/172/105
f 102/97/106 104/104/106 115/173/106
f 102/97/107 96/96/107 104/104/107
f 108/100/108 117/124/108 141/174/108 107/108/108
f 6/101/109 108/100/109 107/108/109
f 110/111/110 6/101/110 109/110/110
f 5/102/111 6/101/111 110/111/111
f 112/113/112 5/102/112 110/111/112
f 113/114/113 5/102/113 112/113/113
f 113/114/114 7/118/114 5/102/114
f 7/118/115 115/117/115 104/175/115
f 7/176/116 104/177/116 5/178/116
f 114/116/117 7/118/117 120/148/117
f 114/179/118 106/133/118 102/180/118
f 114/116/119 102/181/119 115/117/119
f 119/112/120 118/119/120 140/121/120 116/182/120
f 107/108/121 141/174/121 150/126/121
f 3/136/122 120/130/122 111/183/122
f 120/130/123 106/133/123 114/179/123
f 121/131/124 123/184/124 105/132/124
f 122/185/125 82/86/125 124/137/125 3/136/125
f 125/85/126 2/186/126 121/131/126
f 171/187/127 166/188/127 131/189/127 156/18/127
f 128/147/128 144/146/128 143/143/128
f 116/138/129 61/57/129 89/58/129
f 21/6/130 18/5/130 22/8/130
f 34/25/131 31/14/131 30/13/131
f 111/183/132 122/185/132 3/136/132
f 2/186/133 123/184/133 121/131/133
f 26/1/134 21/6/134 20/2/134
f 170/190/135 163/191/135 130/192/135 164/193/135
f 85/194/136 84/165/136 10/167/136
f 95/170/137 96/96/137 91/195/137
f 169/196/138 165/197/138 53/36/138 159/141/138
f 163/191/139 158/198/139 165/197/139 130/192/139
f 168/199/140 166/188/140 36/139/140 154/200/140
f 143/143/141 149/201/141 127/55/141
f 143/143/142 144/146/142 149/201/142
f 144/146/143 15/145/143 149/201/143
f 141/174/144 117/124/144 139/123/144
f 61/43/145 116/182/145 151/142/145 134/54/145
f 135/53/146 147/44/146 61/43/146 134/54/146
f 135/53/147 58/45/147 147/44/147
f 151/142/148 146/202/148 128/147/148 143/143/148
f 151/142/149 116/182/149 146/202/149
f 137/109/150 142/125/150 109/110/150
f 150/126/151 141/174/151 139/123/151 118/119/151
f 150/126/152 118/119/152 142/125/152
f 139/123/153 138/120/153 118/119/153
f 57/40/154 60/49/154 153/33/154
f 145/122/155 128/147/155 138/120/155
f 140/121/156 138/120/156 146/202/156 116/182/156
f 138/120/157 128/147/157 146/202/157
f 133/48/158 148/52/158 132/51/158 59/47/158
f 148/52/159 136/56/159 62/50/159 132/51/159
f 148/52/160 133/48/160 58/45/160 135/53/160
f 136/56/161 127/55/161 152/203/161
f 149/201/162 152/203/162 127/55/162
f 155/204/163 168/199/163 154/200/163 35/156/163
f 129/205/164 167/206/164 168/199/164 155/204/164
f 167/206/165 131/189/165 166/188/165 168/199/165
f 165/197/166 158/198/166 53/36/166
f 163/191/167 48/24/167 158/198/167
f 162/19/168 169/196/168 159/141/168 126/17/168
f 129/205/169 164/193/169 169/196/169 162/19/169
f 164/193/170 130/192/170 165/197/170 169/196/170
f 155/204/171 170/190/171 164/193/171 129/205/171
f 35/156/172 157/155/172 170/190/172 155/204/172
f 157/155/173 48/24/173 163/191/173 170/190/173
f 161/98/174 171/187/174 156/18/174 126/17/174
f 100/94/175 160/140/175 171/187/175 161/98/175
f 160/140/176 36/139/176 166/188/176 171/187/176
f 162/19/177 167/206/177 129/205/177
f 162/19/178 156/18/178 167/206/178
f 156/18/179 131/189/179 167/206/179
f 72/164/180 174/78/180 178/207/180 11/208/180
f 173/77/181 177/209/181 175/210/181 176/211/181
f 176/211/182 178/207/182 174/78/182 173/77/182
f 74/212/183 14/213/183 175/210/183 177/209/183
f 14/66/184 180/72/184 89/58/184
f 179/88/41 180/72/41 88/71/41
l 56 147
l 9 179
