# Blender v3.2.0 OBJ File: 'campfire.blend'
# www.blender.org
mtllib Rock_01_CampFire.mtl
o Rock_Cube.001
v -0.809429 -0.991462 2.041293
v -0.802413 -0.808137 2.720727
v -0.953097 -0.839763 2.181807
v -0.866526 0.813555 2.362448
v -0.872210 0.964872 1.962971
v -1.049965 0.875199 2.127127
v -0.859566 -1.059675 -2.089592
v -1.008467 -0.820600 -2.079864
v -0.806408 -0.769391 -2.468500
v -0.822543 0.992673 -2.098961
v -0.799104 0.809752 -2.287256
v -0.993471 0.810931 -2.056022
v 0.820231 -1.001769 2.059307
v 1.011049 -0.820687 2.089533
v 0.806828 -0.841928 2.422502
v 0.827881 0.939531 2.181094
v 0.825911 0.781912 2.656216
v 1.035560 0.833850 2.104469
v 0.778722 -0.981165 -2.108134
v 0.781172 -0.812281 -2.398593
v 1.028855 -0.809338 -2.148107
v 0.757813 0.931666 -2.118172
v 0.991328 0.850975 -2.089370
v 0.844672 0.789840 -2.493485
vt 0.365313 0.218189
vt 0.388513 0.218189
vt 0.388513 0.241388
vt 0.365313 0.241388
vt 0.365313 0.189952
vt 0.388513 0.189952
vt 0.388513 0.213151
vt 0.365313 0.213151
vt 0.393551 0.189952
vt 0.416750 0.189952
vt 0.416750 0.213151
vt 0.393551 0.213151
vt 0.365313 0.133477
vt 0.388513 0.133477
vt 0.388513 0.156677
vt 0.365313 0.156677
vt 0.365313 0.161714
vt 0.388513 0.161714
vt 0.388513 0.184914
vt 0.365313 0.184914
vt 0.337076 0.213151
vt 0.337076 0.215670
vt 0.334557 0.213151
vt 0.388513 0.130958
vt 0.391032 0.133477
vt 0.337076 0.189952
vt 0.334557 0.189952
vt 0.337076 0.187433
vt 0.391032 0.156677
vt 0.388513 0.159196
vt 0.360276 0.213151
vt 0.362794 0.213151
vt 0.360276 0.215670
vt 0.391032 0.218189
vt 0.388513 0.215670
vt 0.360276 0.189952
vt 0.360276 0.187433
vt 0.362794 0.189952
vt 0.391032 0.184914
vt 0.388513 0.187433
vt 0.365313 0.130958
vt 0.391032 0.161714
vt 0.391032 0.241388
vn 0.0021 0.0384 0.9993
vn 1.0000 0.0040 -0.0031
vn 0.0262 0.9997 0.0023
vn -0.9997 -0.0245 -0.0000
vn -0.0416 0.0280 -0.9987
vn -0.6028 -0.7688 0.2137
vn -0.1412 0.9251 0.3524
vn -0.7632 -0.4568 -0.4570
vn -0.6649 0.4927 -0.5614
vn 0.6201 -0.7094 0.3351
vn 0.5142 0.8134 0.2720
vn 0.4581 -0.7701 -0.4439
vn 0.3439 0.9019 -0.2612
vn -0.7979 -0.6026 0.0136
vn -0.9181 0.0048 0.3964
vn -0.6184 0.7858 -0.0114
vn -0.8432 0.0401 -0.5360
vn 0.0181 -0.8252 -0.5646
vn -0.0133 0.8653 -0.5012
vn 0.8571 -0.0125 -0.5151
vn 0.6248 -0.7808 -0.0047
vn 0.3887 0.9213 -0.0042
vn 0.9063 -0.0439 0.4203
vn 0.0141 -0.9498 0.3127
vn -0.0344 0.9423 0.3330
vn 0.0209 -0.9998 0.0055
usemtl Material.005
s off
f 15/1/1 17/2/1 4/3/1 2/4/1
f 21/5/2 23/6/2 18/7/2 14/8/2
f 22/9/3 10/10/3 5/11/3 16/12/3
f 3/13/4 6/14/4 12/15/4 8/16/4
f 9/17/5 11/18/5 24/19/5 20/20/5
f 1/21/6 2/22/6 3/23/6
f 4/24/7 5/25/7 6/14/7
f 7/26/8 8/27/8 9/28/8
f 10/29/9 11/30/9 12/15/9
f 13/31/10 14/32/10 15/33/10
f 16/34/11 17/2/11 18/35/11
f 19/36/12 20/37/12 21/38/12
f 22/39/13 23/40/13 24/19/13
f 7/26/14 1/21/14 3/23/14 8/27/14
f 2/41/15 4/24/15 6/14/15 3/13/15
f 5/25/16 10/29/16 12/15/16 6/14/16
f 11/18/17 9/17/17 8/16/17 12/15/17
f 19/36/18 7/26/18 9/28/18 20/37/18
f 10/42/19 22/39/19 24/19/19 11/18/19
f 23/6/20 21/5/20 20/20/20 24/19/20
f 13/31/21 19/36/21 21/5/21 14/8/21
f 22/9/22 16/12/22 18/7/22 23/6/22
f 17/2/23 15/1/23 14/8/23 18/7/23
f 1/21/24 13/31/24 15/33/24 2/22/24
f 16/34/25 5/43/25 4/3/25 17/2/25
f 7/26/26 19/36/26 13/31/26 1/21/26
