# Blender v3.2.0 OBJ File: 'campfire.blend'
# www.blender.org
mtllib Rock_02_CampFire.mtl
o Rock.001_Cube.002
v -3.290153 -0.984198 1.955262
v -3.347808 -0.847009 2.448722
v -3.387685 -0.878635 2.078285
v -3.411921 0.866955 2.135041
v -3.352934 0.972136 1.886689
v -3.484553 0.928599 2.030411
v -3.340653 -1.052411 -1.864208
v -3.443419 -0.859472 -1.855691
v -3.342422 -0.808263 -2.094553
v -3.303631 0.999937 -1.872411
v -3.335118 0.863152 -1.935870
v -3.428423 0.864331 -1.834818
v -1.568221 -0.994505 1.971033
v -1.423539 -0.859559 1.997497
v -1.646295 -0.880800 2.187620
v -1.628465 0.946795 2.077660
v -1.627212 0.835312 2.392241
v -1.457541 0.887250 2.010574
v -1.610094 -0.973901 -1.880443
v -1.662570 -0.851153 -2.033348
v -1.406096 -0.848210 -1.915440
v -1.631002 0.938930 -1.889231
v -1.443624 0.904375 -1.864014
v -1.599070 0.843240 -2.116427
v -3.603181 -1.033026 -0.778782
v -3.586469 -1.010289 0.494374
v -3.686002 -0.871305 0.573600
v -3.704459 -0.864918 -0.737725
v -3.611076 0.982769 0.448892
v -3.594521 0.992036 -0.804142
v -3.721253 0.882595 -0.736388
v -3.740084 0.904018 0.552022
v -1.861237 -0.986624 0.497904
v -1.875073 -0.979756 -0.785921
v -1.687932 -0.851435 -0.803453
v -1.693868 -0.855218 0.500860
v -1.887866 0.941165 -0.761911
v -1.864510 0.943787 0.560387
v -1.693085 0.893800 0.528604
v -1.707829 0.899508 -0.762925
vt 0.358444 0.212247
vt 0.380635 0.212247
vt 0.380635 0.234438
vt 0.358444 0.234438
vt 0.358444 0.200376
vt 0.380635 0.200376
vt 0.380635 0.208864
vt 0.358444 0.208864
vt 0.384018 0.200376
vt 0.406210 0.200376
vt 0.406210 0.208864
vt 0.384018 0.208864
vt 0.358444 0.151409
vt 0.380635 0.151409
vt 0.380635 0.157715
vt 0.358444 0.157715
vt 0.358444 0.161098
vt 0.380635 0.161098
vt 0.380635 0.183290
vt 0.358444 0.183290
vt 0.332870 0.208864
vt 0.332870 0.210555
vt 0.331178 0.208864
vt 0.380635 0.133833
vt 0.382327 0.135524
vt 0.380635 0.135524
vt 0.332870 0.186672
vt 0.331178 0.186672
vt 0.332870 0.184981
vt 0.382327 0.157715
vt 0.380635 0.159407
vt 0.355061 0.208864
vt 0.356753 0.208864
vt 0.355061 0.210555
vt 0.382327 0.212247
vt 0.380635 0.210555
vt 0.355061 0.186672
vt 0.355061 0.184981
vt 0.356753 0.186672
vt 0.382327 0.183290
vt 0.380635 0.184981
vt 0.332870 0.200376
vt 0.331178 0.200376
vt 0.358444 0.133833
vt 0.358444 0.135524
vt 0.382327 0.151409
vt 0.382327 0.161098
vt 0.380635 0.186672
vt 0.358444 0.186672
vt 0.355061 0.192979
vt 0.358444 0.192979
vt 0.382327 0.234438
vt 0.355061 0.200376
vt 0.332870 0.192979
vt 0.384018 0.186672
vt 0.384018 0.192979
vt 0.380635 0.192979
vt 0.382327 0.144012
vt 0.380635 0.144012
vt 0.331178 0.192979
vt 0.358444 0.144012
vt 0.406210 0.186672
vt 0.406210 0.192979
vn 0.0017 0.0318 0.9995
vn 0.9858 0.0113 -0.1674
vn 0.0186 0.9998 -0.0005
vn -0.9702 0.0010 -0.2424
vn -0.0345 0.0232 -0.9991
vn -0.6454 -0.7521 0.1337
vn 0.1591 0.8950 0.4168
vn -0.8052 -0.4100 -0.4284
vn -0.6586 0.4361 -0.6132
vn 0.5211 -0.6639 0.5364
vn 0.4172 0.8571 0.3021
vn 0.3102 -0.6865 -0.6576
vn 0.2154 0.9104 -0.3532
vn -0.7077 -0.6912 0.1463
vn -0.9732 -0.0210 0.2291
vn -0.7253 0.6591 -0.1986
vn -0.8697 0.0318 -0.4925
vn 0.0167 -0.7211 -0.6927
vn -0.0176 0.7808 -0.6245
vn 0.6695 -0.0119 -0.7427
vn 0.5523 -0.8229 0.1335
vn 0.2926 0.9552 -0.0449
vn 0.8260 -0.0318 0.5628
vn 0.0119 -0.9421 0.3352
vn -0.0303 0.9339 0.3563
vn 0.0038 -1.0000 0.0054
vn 0.0382 -0.9992 0.0154
vn 0.0223 -0.9997 0.0059
vn 0.1998 0.9787 0.0479
vn 0.2521 0.9677 -0.0025
vn 0.6509 -0.7486 -0.1265
vn 0.5909 -0.8068 -0.0051
vn -0.3755 0.9248 0.0617
vn -0.5979 0.8015 -0.0122
vn -0.8642 -0.4606 -0.2024
vn -0.8342 -0.5513 0.0148
vn -0.9825 -0.0379 0.1826
vn -0.9998 -0.0201 -0.0000
vn 0.0330 0.9994 0.0108
vn 0.0259 0.9997 0.0025
vn 0.9708 0.0096 0.2396
vn 1.0000 0.0055 -0.0034
usemtl Material.004
s off
f 15/1/1 17/2/1 4/3/1 2/4/1
f 36/5/2 39/6/2 18/7/2 14/8/2
f 38/9/3 29/10/3 5/11/3 16/12/3
f 28/13/4 31/14/4 12/15/4 8/16/4
f 9/17/5 11/18/5 24/19/5 20/20/5
f 1/21/6 2/22/6 3/23/6
f 4/24/7 5/25/7 6/26/7
f 7/27/8 8/28/8 9/29/8
f 10/30/9 11/31/9 12/15/9
f 13/32/10 14/33/10 15/34/10
f 16/35/11 17/2/11 18/36/11
f 19/37/12 20/38/12 21/39/12
f 22/40/13 23/41/13 24/19/13
f 26/42/14 1/21/14 3/23/14 27/43/14
f 2/44/15 4/24/15 6/26/15 3/45/15
f 30/46/16 10/30/16 12/15/16 31/14/16
f 11/18/17 9/17/17 8/16/17 12/15/17
f 19/37/18 7/27/18 9/29/18 20/38/18
f 10/47/19 22/40/19 24/19/19 11/18/19
f 23/48/20 21/49/20 20/20/20 24/19/20
f 34/50/21 19/37/21 21/49/21 35/51/21
f 38/9/22 16/12/22 18/7/22 39/6/22
f 17/2/23 15/1/23 14/8/23 18/7/23
f 1/21/24 13/32/24 15/34/24 2/22/24
f 16/35/25 5/52/25 4/3/25 17/2/25
f 26/42/26 33/53/26 13/32/26 1/21/26
f 7/27/27 19/37/27 34/50/27 25/54/27
f 25/54/28 34/50/28 33/53/28 26/42/28
f 22/55/29 37/56/29 40/57/29 23/48/29
f 37/56/30 38/9/30 39/6/30 40/57/30
f 13/32/31 33/53/31 36/5/31 14/8/31
f 33/53/32 34/50/32 35/51/32 36/5/32
f 5/25/33 29/58/33 32/59/33 6/26/33
f 29/58/34 30/46/34 31/14/34 32/59/34
f 7/27/35 25/54/35 28/60/35 8/28/35
f 25/54/36 26/42/36 27/43/36 28/60/36
f 3/45/37 6/26/37 32/59/37 27/61/37
f 27/61/38 32/59/38 31/14/38 28/13/38
f 22/55/39 10/62/39 30/63/39 37/56/39
f 37/56/40 30/63/40 29/10/40 38/9/40
f 21/49/41 23/48/41 40/57/41 35/51/41
f 35/51/42 40/57/42 39/6/42 36/5/42
